# Blender v2.71 (sub 0) OBJ File: 'City_Building07.blend'
# www.blender.org
mtllib City_Building07.mtl
o Interior_Walls
v 0.200000 2.700001 2.450000
v 0.200000 2.700001 0.050000
v 1.200000 4.285001 0.000000
v 1.200000 3.365001 0.000000
v 1.200000 2.700001 2.450000
v 1.200000 2.700001 0.050000
v 1.200000 5.199997 2.450000
v 1.200000 5.199997 0.050000
v 0.200000 0.200005 0.050000
v 0.200000 0.200005 2.450000
v 6.200000 0.200005 0.050000
v 6.200000 0.200005 2.450000
v 6.200000 5.199997 0.050000
v 6.200000 5.199997 2.450000
v 6.200000 4.700001 0.000000
v 6.200000 3.780001 0.000000
v 6.200000 4.750001 2.170000
v 1.210000 2.690001 0.050000
v 1.210000 3.365001 0.000000
v 1.210000 2.690001 2.450000
v 6.200000 3.730001 0.050000
v 1.200000 3.315001 0.050000
v 1.200000 4.335001 0.050000
v 6.200000 3.730001 2.170000
v 1.200000 4.335001 2.170000
v 1.200000 3.315001 2.170000
v 1.210000 5.189997 0.000000
v 1.210000 5.189997 0.050000
v 1.210000 2.690001 0.000000
v 1.210000 5.189997 2.450000
v 1.200000 3.365001 2.120000
v 1.200000 4.285001 2.120000
v 1.210000 4.285001 0.000000
v 6.200000 4.750001 0.050000
v 6.200000 3.780001 2.120000
v 6.200000 4.700001 2.120000
v 1.210000 2.690001 2.500000
v 1.210000 5.189997 2.500000
v 1.210000 3.315001 0.050000
v 1.210000 4.335001 0.050000
v 1.210000 4.335001 2.170000
v 1.210000 3.315001 2.170000
v 1.210000 3.365001 2.120000
v 1.210000 4.285001 2.120000
v 0.210000 2.690001 2.450000
v 0.210000 2.690001 0.050000
v 0.210000 0.210006 0.050000
v 0.210000 0.210006 2.450000
v 0.210000 2.690001 0.000000
v 0.210000 0.210006 0.000000
v 0.210000 2.690001 2.500000
v 0.210000 0.210006 2.500000
v 6.190001 0.210006 2.450000
v 6.190001 5.189997 0.050000
v 6.190001 0.210006 0.050000
v 6.190001 0.210006 0.000000
v 6.190001 5.189997 2.450000
v 6.190001 0.210006 2.500000
v 6.190001 4.700001 0.000000
v 6.190001 3.780001 0.000000
v 6.190001 4.750001 2.170000
v 6.190001 5.189997 0.000000
v 6.190001 5.189997 2.500000
v 6.190001 3.730001 0.050000
v 6.190001 3.730001 2.170000
v 6.190001 4.750001 0.050000
v 6.190001 3.780001 2.120000
v 6.190001 4.700001 2.120000
v 6.300000 4.700001 -0.000000
v 6.300000 3.780001 -0.000000
v 6.300000 5.199997 2.450000
v 6.300000 0.200006 2.450000
v 6.300000 5.199997 0.050000
v 8.300000 5.199997 2.450000
v 8.300000 5.199997 0.050000
v 8.300000 4.700001 -0.000000
v 8.300000 0.200006 2.450000
v 6.300000 0.200006 0.050000
v 8.300000 0.200006 0.050000
v 8.300000 3.780001 -0.000000
v 8.289999 3.730001 2.170000
v 8.290000 0.210006 2.500000
v 8.289999 3.780001 -0.000000
v 8.290000 0.210006 -0.000000
v 6.310000 5.189996 2.450000
v 6.310000 5.189996 0.050000
v 8.290000 5.189996 2.450000
v 8.290000 5.189996 0.050000
v 6.310000 5.189996 -0.000000
v 8.290000 5.189996 -0.000000
v 6.310000 5.189996 2.500000
v 8.290000 5.189996 2.500000
v 6.310000 0.210006 2.450000
v 8.290000 0.210006 2.450000
v 6.310000 0.210006 0.050000
v 8.290000 0.210006 0.050000
v 6.310000 0.210006 -0.000000
v 6.310000 0.210006 2.500000
v 6.309999 3.780001 -0.000000
v 8.300000 3.730001 0.050000
v 8.300000 3.730001 2.170000
v 8.300000 4.750001 2.170000
v 8.300000 4.750001 0.050000
v 6.309999 4.700001 -0.000000
v 8.289999 4.700001 -0.000000
v 8.300000 3.780001 2.120000
v 8.300000 4.700001 2.120000
v 6.300000 4.750001 0.050000
v 8.289999 3.730001 0.050000
v 6.300000 4.750001 2.170000
v 6.300000 3.730001 2.170000
v 6.300000 4.700001 2.120000
v 6.300000 3.780001 2.120000
v 8.289999 4.750001 0.050000
v 8.289999 4.700001 2.120000
v 6.300000 3.730001 0.050000
v 8.289999 3.780001 2.120000
v 8.289999 4.750001 2.170000
v 6.309999 4.750001 0.050000
v 6.309999 4.750001 2.170000
v 6.309999 3.730001 2.170000
v 6.309999 4.700001 2.120000
v 6.309999 3.780001 2.120000
v 6.309999 3.730001 0.050000
v 3.700000 5.199997 0.050000
v 3.700000 5.189997 0.050000
v 3.700000 5.189997 0.000000
v 3.700000 5.199997 2.450000
v 3.700000 5.189997 2.450000
v 3.700000 5.189997 2.500000
v 4.200000 0.200005 0.050000
v 2.200000 0.200005 0.050000
v 4.196667 0.210006 0.000000
v 2.203333 0.210006 0.000000
v 4.196667 0.210006 0.050000
v 2.203333 0.210006 0.050000
v 2.200000 0.200005 2.450000
v 4.200000 0.200005 2.450000
v 2.203334 0.210006 2.500000
v 4.196667 0.210006 2.500000
v 2.203334 0.210006 2.450000
v 4.196667 0.210006 2.450000
v 6.200000 1.965003 0.050000
v 6.190001 1.970003 0.050000
v 6.190001 1.995003 0.000000
v 6.200000 3.533333 2.450000
v 6.200000 1.866669 2.450000
v 6.190001 3.530000 2.450000
v 6.190001 1.870003 2.450000
v 6.190001 3.530000 2.500000
v 6.190001 1.870003 2.500000
v 8.300000 1.965004 0.050000
v 8.289999 1.995003 -0.000000
v 8.289999 1.970003 0.050000
v 6.309999 1.995003 -0.000000
v 6.300000 1.965004 0.050000
v 6.309999 1.970003 0.050000
v 8.300000 3.533333 2.450000
v 8.300000 1.866669 2.450000
v 8.290000 3.529999 2.450000
v 8.290000 1.870003 2.450000
v 8.290000 3.529999 2.500000
v 8.290000 1.870003 2.500000
v 6.300000 1.866670 2.450000
v 6.300000 3.533333 2.450000
v 6.310000 1.870003 2.500000
v 6.310000 3.529999 2.500000
v 6.310000 1.870003 2.450000
v 6.310000 3.529999 2.450000
v 0.200000 2.600001 0.500000
v 0.200000 0.600001 0.500000
v 0.200000 2.600001 2.200000
v 0.200000 0.600001 2.200000
v 0.200000 2.700001 2.450000
v 0.200000 2.700001 0.050000
v 1.200000 4.335000 0.050000
v 1.200000 3.315001 0.050000
v 1.200000 4.335000 2.170000
v 1.200000 3.315001 2.170000
v 0.300000 2.700001 0.500000
v 0.300000 2.700001 2.200000
v 0.900000 2.700001 0.500000
v 0.900000 2.700001 2.200000
v 1.200000 2.700001 2.450000
v 1.200000 2.700001 0.050000
v 1.200000 5.200000 2.450000
v 1.200000 5.200000 0.050000
v 0.200000 0.200001 0.050000
v 0.200000 0.200001 2.450000
v 6.200000 0.200001 0.050000
v 6.200000 0.200001 2.450000
v 6.200000 5.200000 0.050000
v 6.200000 5.200000 2.450000
v 6.200000 4.750000 0.050000
v 6.200000 4.750000 2.170001
v 6.200000 3.730001 0.050000
v 6.200000 3.730001 2.170001
v 6.300000 4.750000 2.170001
v 6.300000 4.750000 0.050000
v 6.300000 3.730001 0.050000
v 6.300000 3.730001 2.170001
v 6.300000 5.200000 2.450000
v 6.300000 0.200001 2.450000
v 6.300000 5.200000 0.050000
v 8.300000 5.200000 2.450000
v 8.300000 5.200000 0.050000
v 8.300000 4.750000 2.170000
v 8.300000 4.750000 0.050000
v 8.300000 3.730001 2.170000
v 8.300000 0.200001 2.450000
v 6.300000 0.200001 0.050000
v 8.300000 0.200001 0.050000
v 8.300000 3.730001 0.050000
v 0.175000 2.600001 0.500000
v 0.175000 0.600001 0.500000
v 0.175000 2.600001 2.200000
v 0.175000 0.600001 2.200000
v 0.300000 2.725001 0.500000
v 0.300000 2.725001 2.200000
v 0.900000 2.725001 0.500000
v 0.900000 2.725001 2.200000
v 3.700000 5.200000 2.450000
v 3.700000 5.200000 0.050000
v 3.200000 0.200001 2.450000
v 3.200000 0.200001 0.050000
v 6.200000 2.700001 2.450000
v 6.200000 2.700001 0.050000
v 6.300000 2.700001 2.450000
v 8.300000 2.700001 2.450000
v 6.300000 2.700001 0.050000
v 8.300000 2.700001 0.050000
vt 0.744197 0.255656
vt 0.579707 0.255655
vt 0.570088 0.246036
vt 0.744197 0.246036
vt 0.549615 0.254353
vt 0.557133 0.246836
vt 0.875885 0.246837
vt 0.868368 0.254353
vt 0.549512 0.259959
vt 0.868280 0.259959
vt 0.549509 0.245041
vt 0.950206 0.245042
vt 0.948542 0.252007
vt 0.549416 0.252005
vt 0.573136 0.255595
vt 0.573136 0.245647
vt 0.707435 0.245647
vt 0.697488 0.255595
vt 0.953389 0.244829
vt 0.951718 0.251842
vt 0.556829 0.251936
vt 0.549910 0.244829
vt 0.555205 0.247529
vt 0.741586 0.247530
vt 0.732450 0.256666
vt 0.564341 0.256666
vt 0.870623 0.250652
vt 0.874936 0.259279
vt 0.566974 0.259279
vt 0.566974 0.250652
vt 0.747084 0.258543
vt 0.579721 0.258526
vt 0.868413 0.259916
vt 0.549660 0.259917
vt 0.549719 0.254290
vt 0.868484 0.254290
vt 0.876002 0.246772
vt 0.557236 0.246774
vt 0.564291 0.247369
vt 0.732403 0.247369
vt 0.741539 0.256506
vt 0.555154 0.256506
vt 0.732423 0.244435
vt 0.564311 0.244435
vt 0.875970 0.241234
vt 0.557223 0.241235
vt 0.575272 0.257731
vt 0.697491 0.257729
vt 0.875939 0.241318
vt 0.875868 0.246879
vt 0.557100 0.246880
vt 0.557171 0.241318
vt 0.564321 0.259600
vt 0.732430 0.259600
vt 0.950263 0.251966
vt 0.950263 0.259982
vt 0.549416 0.259982
vt 0.551075 0.244998
vt 0.951922 0.244998
vt 0.875932 0.241210
vt 0.868555 0.259852
vt 0.549790 0.259852
vt 0.555130 0.259759
vt 0.741514 0.259759
vt 0.557088 0.241273
vt 0.875840 0.241274
vt 0.551582 0.252908
vt 0.551580 0.244947
vt 0.946468 0.244853
vt 0.946471 0.252815
vt 0.951719 0.259804
vt 0.556831 0.259898
vt 0.549910 0.259922
vt 0.953389 0.259922
vt 0.868408 0.254314
vt 0.572980 0.255467
vt 0.572980 0.246019
vt 0.761955 0.246019
vt 0.761955 0.255467
vt 0.761964 0.249046
vt 0.761964 0.258494
vt 0.572990 0.258494
vt 0.572990 0.249046
vt 0.571072 0.258732
vt 0.760047 0.258732
vt 0.758699 0.245781
vt 0.569724 0.245780
vt 0.606644 0.245707
vt 0.696691 0.245708
vt 0.694690 0.247708
vt 0.606644 0.247708
vt 0.888330 0.245319
vt 0.890275 0.251156
vt 0.555258 0.251157
vt 0.549373 0.245270
vt 0.551154 0.259536
vt 0.549209 0.253698
vt 0.884227 0.253698
vt 0.890111 0.259585
vt 0.867981 0.245368
vt 0.561658 0.245335
vt 0.890275 0.259560
vt 0.555258 0.259560
vt 0.562025 0.259244
vt 0.560346 0.254207
vt 0.849530 0.254207
vt 0.854606 0.259283
vt 0.741612 0.244277
vt 0.555229 0.244276
vt 0.549209 0.245295
vt 0.884227 0.245295
vt 0.549615 0.259877
vt 0.560346 0.245496
vt 0.849530 0.245497
vt 0.950305 0.252993
vt 0.551177 0.252991
vt 0.551177 0.244977
vt 0.950305 0.244977
vt 0.694690 0.257714
vt 0.596638 0.257714
vt 0.948542 0.260022
vt 0.950211 0.259958
vt 0.549209 0.244992
vt 0.889091 0.244992
vt 0.887461 0.250822
vt 0.555110 0.250894
vt 0.555757 0.259542
vt 0.557500 0.253654
vt 0.888987 0.253582
vt 0.894801 0.259542
vt 0.555205 0.247558
vt 0.741590 0.247558
vt 0.732455 0.256694
vt 0.549512 0.259939
vt 0.868284 0.259939
vt 0.694779 0.256597
vt 0.606732 0.256597
vt 0.596727 0.246591
vt 0.694779 0.246591
vt 0.889740 0.253572
vt 0.557388 0.253645
vt 0.557386 0.245252
vt 0.889738 0.245179
vt 0.887463 0.259215
vt 0.555112 0.259288
vt 0.895641 0.259475
vt 0.561697 0.259422
vt 0.560018 0.254385
vt 0.849205 0.254384
vt 0.854280 0.259461
vt 0.557498 0.245283
vt 0.888985 0.245210
vt 0.895211 0.245195
vt 0.893469 0.251083
vt 0.561981 0.251155
vt 0.556167 0.245195
vt 0.560018 0.245675
vt 0.849205 0.245675
vt 0.606564 0.247832
vt 0.694609 0.247832
vt 0.694609 0.257838
vt 0.596558 0.257838
vt 0.893471 0.259454
vt 0.561983 0.259527
vt 0.875975 0.241253
vt 0.732370 0.247211
vt 0.741507 0.256347
vt 0.555126 0.256347
vt 0.564263 0.247210
vt 0.868514 0.259873
vt 0.696780 0.258598
vt 0.606732 0.258598
vt 0.561988 0.254125
vt 0.566304 0.245494
vt 0.874455 0.245494
vt 0.865822 0.254126
vt 0.561658 0.245410
vt 0.874939 0.259354
vt 0.566974 0.259354
vt 0.606564 0.245831
vt 0.696611 0.245831
vt 0.853010 0.245522
vt 0.854689 0.250559
vt 0.565502 0.250559
vt 0.560428 0.245482
vt 0.741527 0.259600
vt 0.555145 0.259600
vt 0.561084 0.259428
vt 0.865760 0.259428
vt 0.564247 0.244276
vt 0.732355 0.244277
vt 0.854689 0.259269
vt 0.565502 0.259268
vt 0.947455 0.252849
vt 0.549600 0.252748
vt 0.549601 0.244759
vt 0.947457 0.244858
vt 0.954488 0.259889
vt 0.549655 0.259692
vt 0.549703 0.244844
vt 0.954535 0.244939
vt 0.954592 0.251883
vt 0.556738 0.251883
vt 0.954592 0.259872
vt 0.556738 0.259874
vt 0.897968 0.245346
vt 0.896238 0.251193
vt 0.560640 0.251193
vt 0.561245 0.245346
vt 0.897404 0.245262
vt 0.896794 0.251139
vt 0.560106 0.245262
vt 0.896238 0.259611
vt 0.560640 0.259611
vt 0.896795 0.259537
vt 0.561992 0.259561
vt 0.560510 0.259566
vt 0.562240 0.253719
vt 0.897837 0.253719
vt 0.897231 0.259566
vt 0.556906 0.259430
vt 0.557515 0.253553
vt 0.892319 0.253530
vt 0.894204 0.259430
vt 0.562240 0.245301
vt 0.897837 0.245301
vt 0.557515 0.245155
vt 0.892318 0.245132
vt 0.866176 0.250643
vt 0.874798 0.259265
vt 0.562680 0.250643
vt 0.866135 0.245346
vt 0.560018 0.245315
vt 0.560510 0.259223
vt 0.562293 0.254179
vt 0.851887 0.254179
vt 0.851267 0.259223
vt 0.561131 0.254129
vt 0.850111 0.254110
vt 0.851744 0.259202
vt 0.562293 0.245456
vt 0.851887 0.245457
vt 0.561131 0.245425
vt 0.850111 0.245407
vt 0.866139 0.245415
vt 0.866180 0.250712
vt 0.562680 0.250711
vt 0.560018 0.245383
vt 0.562770 0.254128
vt 0.562771 0.245492
vt 0.871083 0.245492
vt 0.866765 0.254128
vt 0.561002 0.259418
vt 0.865859 0.259419
vt 0.560428 0.259360
vt 0.562211 0.254316
vt 0.851808 0.254316
vt 0.851188 0.259360
vt 0.560592 0.259179
vt 0.561213 0.254107
vt 0.850189 0.254088
vt 0.851822 0.259179
vt 0.562211 0.245593
vt 0.851808 0.245594
vt 0.561213 0.245403
vt 0.850188 0.245383
vt 0.851726 0.245588
vt 0.849942 0.250632
vt 0.560346 0.250632
vt 0.560965 0.245588
vt 0.851249 0.245524
vt 0.850627 0.250597
vt 0.561650 0.250616
vt 0.560018 0.245524
vt 0.849942 0.259355
vt 0.560346 0.259354
vt 0.850627 0.259301
vt 0.561651 0.259320
vt 0.654926 0.768566
vt 0.713285 0.768565
vt 0.713290 0.969740
vt 0.654931 0.996311
vt 0.664423 0.972593
vt 0.664423 0.811272
vt 0.882677 0.811266
vt 0.892166 0.768564
vt 0.892167 0.996311
vt 0.882677 0.972587
vt 0.749829 0.768570
vt 0.721360 0.811272
vt 0.749829 0.996317
vt 0.721360 0.972593
vt 0.810083 0.969738
vt 0.794424 0.969741
vt 0.794420 0.768565
vt 0.692887 0.972587
vt 0.692887 0.811266
vt 0.810082 0.768561
vt 0.697633 0.768559
vt 0.697632 0.969741
vt 0.939615 0.768564
vt 0.939615 0.996312
vt 0.897567 0.762649
vt 0.897567 0.534900
vt 0.854864 0.534900
vt 0.854864 0.736078
vt 0.660334 0.762648
vt 0.660334 0.534900
vt 0.850125 0.534900
vt 0.850125 0.762648
vt 0.703035 0.736078
vt 0.703032 0.534901
vt 0.799829 0.736078
vt 0.799829 0.534900
vt 0.755297 0.961623
vt 0.752712 0.961615
vt 0.752763 0.813536
vt 0.755348 0.813544
vt 0.756056 0.813536
vt 0.758640 0.813543
vt 0.758640 0.961620
vt 0.756056 0.961612
vt 0.837623 0.968370
vt 0.837610 0.971173
vt 0.676994 0.971173
vt 0.677008 0.968370
vt 0.676994 0.974685
vt 0.677008 0.971881
vt 0.837623 0.971881
vt 0.837609 0.974685
vt 0.838332 0.970742
vt 0.838332 0.968370
vt 0.895270 0.968370
vt 0.895270 0.970742
vt 0.762641 0.813536
vt 0.765226 0.813543
vt 0.765226 0.961621
vt 0.762641 0.961614
vt 0.761933 0.961621
vt 0.759348 0.961614
vt 0.759348 0.813536
vt 0.761933 0.813543
vt 0.895269 0.971450
vt 0.895269 0.973823
vt 0.838332 0.973823
vt 0.838332 0.971451
vt 0.897565 0.762651
vt 0.660327 0.762651
vt 0.758071 0.736078
vt 0.758071 0.534901
usemtl Interior_Mat
s off
f 28/1 40/2 33/3 27/4
f 33/5 40/6 41/7 44/8
f 16/9 60/5 67/8 35/10
f 128/11 14/12 57/13 129/14
f 18/15 29/16 19/17 39/18
f 1/19 45/20 48/21 10/22
f 65/23 61/24 68/25 67/26
f 144/27 145/28 56/29 55/30
f 8/31 23/32 40/2 28/1
f 32/33 3/34 33/5 44/8
f 19/35 43/36 42/37 39/38
f 43/39 44/40 41/41 42/42
f 32/43 44/40 43/39 31/44
f 17/45 34/46 66/38 61/7
f 6/47 18/15 39/18 22/48
f 24/49 65/50 64/51 21/52
f 35/53 67/26 68/25 36/54
f 20/14 30/55 38/56 37/57
f 5/58 7/59 30/55 20/14
f 22/46 39/38 42/37 26/60
f 31/61 43/36 19/35 4/62
f 26/63 42/42 41/41 25/64
f 23/65 25/66 41/7 40/6
f 47/67 50/68 49/69 46/70
f 45/20 51/71 52/72 48/21
f 9/73 47/67 46/70 2/74
f 66/38 59/35 68/75 61/7
f 46/76 49/77 29/78 18/79
f 20/80 37/81 51/82 45/83
f 2/84 46/76 18/79 6/85
f 5/86 20/80 45/83 1/87
f 34/88 13/89 54/90 66/91
f 64/51 65/50 67/8 60/5
f 132/92 136/93 47/94 9/95
f 138/96 142/97 53/98 12/99
f 143/100 144/27 55/30 11/101
f 136/93 134/102 50/103 47/94
f 146/104 148/105 57/106 14/107
f 17/108 61/24 65/23 24/109
f 142/97 140/110 58/111 53/98
f 15/112 36/33 68/75 59/35
f 148/105 150/113 63/114 57/106
f 126/115 28/116 27/117 127/118
f 66/91 54/90 62/119 59/120
f 129/14 57/13 63/121 130/57
f 125/122 8/9 28/116 126/115
f 104/35 119/38 120/37 122/36
f 71/123 74/124 87/125 85/126
f 72/127 93/128 94/129 77/130
f 81/131 118/132 115/133 117/26
f 80/134 83/5 117/8 106/135
f 99/5 123/8 121/50 124/51
f 86/136 119/137 104/138 89/139
f 88/140 86/141 89/142 90/143
f 85/126 87/125 92/144 91/145
f 75/146 73/127 86/141 88/140
f 158/147 160/148 87/149 74/150
f 93/128 98/151 82/152 94/129
f 79/153 96/154 95/155 78/156
f 160/148 162/157 92/158 87/149
f 113/33 123/8 99/5 70/34
f 76/112 107/33 115/75 105/35
f 114/38 105/35 115/75 118/7
f 109/51 81/50 117/8 83/5
f 114/159 88/160 90/161 105/162
f 102/108 118/132 81/131 101/109
f 116/65 124/51 121/50 111/66
f 96/154 84/163 97/164 95/155
f 102/165 103/52 114/38 118/7
f 122/166 120/167 121/168 123/169
f 112/170 69/62 104/35 122/36
f 73/171 108/172 119/137 86/136
f 157/173 155/174 99/175 124/176
f 106/53 117/26 115/133 107/54
f 152/100 154/27 96/30 79/177
f 101/49 81/50 109/51 100/52
f 154/27 153/178 84/179 96/30
f 103/180 75/181 88/160 114/159
f 164/182 168/183 93/184 72/185
f 110/186 111/187 121/168 120/167
f 156/188 157/173 124/176 116/189
f 108/46 110/60 120/37 119/38
f 113/190 112/191 122/166 123/169
f 168/183 166/192 98/193 93/184
f 54/194 126/195 127/196 62/197
f 13/198 125/199 126/195 54/194
f 7/200 128/201 129/202 30/203
f 30/203 129/202 130/204 38/205
f 11/206 55/207 135/208 131/209
f 131/210 135/211 136/155 132/212
f 55/207 56/213 133/214 135/208
f 135/211 133/215 134/216 136/155
f 10/217 48/218 141/219 137/220
f 137/221 141/222 142/223 138/224
f 48/218 52/225 139/226 141/219
f 141/222 139/227 140/228 142/223
f 64/229 60/230 145/29 144/231
f 21/232 64/229 144/231 143/233
f 12/234 53/235 149/236 147/237
f 147/234 149/238 148/239 146/240
f 53/235 58/241 151/242 149/236
f 149/238 151/243 150/244 148/239
f 100/245 109/246 154/247 152/248
f 109/246 83/230 153/29 154/247
f 95/249 97/250 155/251 157/252
f 78/253 95/249 157/252 156/254
f 77/255 94/256 161/257 159/258
f 159/259 161/260 160/261 158/262
f 94/256 82/263 163/264 161/257
f 161/260 163/265 162/266 160/261
f 71/267 85/268 169/269 165/270
f 165/271 169/272 168/273 164/274
f 85/268 91/275 167/276 169/269
f 169/272 167/277 166/278 168/273
f 185/279 177/280 179/281 184/282
f 181/283 174/282 175/279 180/284
f 170/285 175/286 174/287 172/288
f 222/282 223/279 192/286 193/287
f 180/284 175/279 185/289 182/290
f 182/290 185/289 184/291 183/292
f 179/281 178/293 186/287 184/282
f 226/287 197/294 196/295 227/286
f 173/296 189/282 188/279 171/297
f 178/293 176/298 187/286 186/287
f 193/282 192/279 194/299 195/300
f 224/279 191/301 190/302 225/282
f 183/292 184/291 174/282 181/283
f 172/288 174/287 189/282 173/296
f 205/303 206/304 208/305 207/306
f 202/307 204/308 206/309 205/310
f 198/311 199/312 204/308 202/307
f 201/313 228/303 230/304 200/314
f 203/307 210/310 212/309 211/308
f 171/297 188/279 175/286 170/285
f 172/315 216/316 214/317 170/318
f 171/319 215/320 217/321 173/322
f 170/323 214/324 215/325 171/326
f 173/327 217/328 216/329 172/330
f 181/331 219/332 221/333 183/334
f 180/335 218/336 219/337 181/338
f 183/339 221/340 220/341 182/342
f 182/343 220/344 218/345 180/346
f 186/282 187/279 223/286 222/287
f 189/279 224/301 225/302 188/282
f 191/279 226/286 227/287 190/282
f 226/287 193/282 195/300 197/294
f 198/311 202/307 228/303 201/313
f 228/347 203/348 211/308 230/304
f 229/307 209/349 213/350 231/308
f 207/306 209/349 229/307 205/303
f 210/307 229/303 231/304 212/308
o Interior_Floor
v 1.200000 5.200001 0.000000
v 6.200000 5.200001 0.000000
v 1.200000 2.700001 0.000000
v 6.200000 0.200001 0.000000
v 0.200000 2.700001 0.000000
v 0.200000 0.200001 0.000000
v 6.300000 5.200001 0.000000
v 8.300000 5.200001 0.000000
v 6.300000 0.200001 0.000000
v 8.300000 0.200001 0.000000
vt 0.199491 0.548249
vt 0.424779 0.548249
vt 0.650066 0.998825
vt 0.199491 0.998824
vt 0.199491 0.818596
vt 0.650066 0.818596
vt 0.424779 0.458134
vt 0.650067 0.458134
usemtl Interior_Mat
s off
f 232/351 234/352 235/353 233/354
f 238/353 240/354 241/355 239/356
f 234/352 236/357 237/358 235/353
o Exterior_Walls01
v -0.050000 -0.050004 3.600000
v -0.050000 5.449996 3.600000
v 0.230000 -0.050004 3.600000
v 0.230000 5.449996 3.600000
v -0.050000 -0.050004 3.500000
v -0.050000 5.449996 3.500000
v 0.230000 -0.050004 3.500000
v 0.230000 5.449996 3.500000
v 0.230000 3.616663 3.500000
v 0.230000 1.783330 3.500000
v 0.230000 3.616663 3.600000
v 0.230000 1.783330 3.600000
v -0.050000 3.616663 3.600000
v -0.050000 1.783330 3.600000
v -0.050000 3.616663 3.500000
v -0.050000 1.783330 3.500000
v 8.400000 3.779995 0.000000
v 8.400001 4.699995 0.000000
v 8.400001 4.689997 0.009996
v 8.400000 3.789995 0.009996
v 8.350000 4.689997 0.010000
v 8.400001 4.689997 2.109999
v 8.350000 4.689997 2.109999
v 8.349999 3.789995 0.009996
v 8.349999 3.789995 2.109999
v 8.400000 3.789995 2.109999
v 8.400001 4.699995 2.120001
v 8.400000 3.779995 2.120001
v -0.020000 0.399996 2.500000
v 0.000000 0.399996 2.599999
v -0.020000 4.999996 2.500000
v 0.000000 4.999996 2.599999
v 0.150000 4.999996 2.500000
v -0.020000 4.999996 2.599999
v 0.150000 0.399996 2.500000
v -0.020000 0.399996 2.599999
v 0.000000 5.299994 2.500000
v 0.000000 5.299994 2.599999
v 0.000000 0.299994 2.599999
v 0.000000 0.299994 2.500000
v 0.000000 0.099998 2.599999
v 0.000000 5.099996 2.599999
v 0.000000 5.099996 2.500000
v 0.000000 0.099998 2.500000
v -0.020000 5.299994 2.500000
v -0.020000 5.299994 2.599999
v -0.020000 5.099996 2.599999
v -0.020000 0.299994 2.599999
v -0.020000 0.299994 2.500000
v -0.020000 5.099996 2.500000
v -0.020000 0.099998 2.599999
v -0.020000 0.099998 2.500000
v 0.150000 3.466662 2.500000
v 0.150000 1.933330 2.500000
v 0.000000 3.466662 2.599999
v 0.000000 1.933330 2.599999
v -0.020000 3.466662 2.599999
v -0.020000 1.933330 2.599999
v -0.020000 3.466662 2.500000
v -0.020000 1.933330 2.500000
v 0.000000 0.399996 2.599999
v 0.000000 4.999996 2.599999
v 0.000000 4.999996 3.099999
v 0.000000 0.399996 3.099999
v 0.000000 5.299994 3.400000
v 0.000000 0.099998 3.400000
v 0.000000 5.099996 3.200000
v 0.000000 0.299994 3.200000
v 0.000000 5.299994 2.500000
v 0.000000 5.299994 2.599999
v 0.000000 5.299994 0.300000
v 0.000000 0.299994 0.300000
v 0.000000 0.299994 2.599999
v 0.000000 0.299994 2.500000
v 0.000000 0.099998 0.300000
v 0.000000 0.099998 2.599999
v 0.000000 5.099996 2.599999
v 0.000000 5.099996 2.500000
v 0.000000 5.099996 0.300000
v 0.000000 0.099998 2.500000
v -0.020000 0.399996 3.099999
v -0.020000 -0.000004 3.500000
v 0.200000 -0.000004 3.099999
v 0.100000 0.399996 3.099999
v 0.200000 -0.000004 -0.050000
v 0.100000 0.399996 -0.050000
v -0.020000 4.999996 3.099999
v 0.100000 4.999996 3.099999
v -0.020000 5.399997 3.500000
v 0.200000 5.399997 3.099999
v 0.100000 4.999996 -0.050000
v 0.200000 5.399997 -0.050000
v 0.200000 2.699996 3.500000
v -0.020000 0.399996 0.100000
v -0.020000 -0.000004 0.100000
v -0.020000 5.399997 0.100000
v -0.020000 4.999996 0.100000
v -0.020000 5.099996 3.200000
v 0.000000 5.299994 3.400000
v 0.200000 -0.000004 3.500000
v 0.000000 0.099998 3.400000
v 0.200000 5.399997 3.500000
v 0.000000 5.099996 3.200000
v 0.000000 0.299994 3.200000
v 0.200000 0.199996 3.099999
v -0.050000 5.399997 -0.050000
v -0.050000 4.999996 -0.050000
v 0.000000 5.299994 0.300000
v 0.000000 0.299994 0.300000
v 0.000000 0.099998 0.300000
v -0.050000 0.399996 -0.050000
v -0.050000 -0.000004 -0.050000
v 0.000000 5.099996 0.300000
v 0.200000 2.699996 2.799999
v -0.020000 5.299994 3.400000
v -0.020000 0.099998 3.400000
v -0.020000 0.299994 3.200000
v -0.020000 5.299994 0.300000
v -0.020000 0.299994 0.300000
v -0.020000 0.099998 0.300000
v -0.020000 5.099996 0.300000
v -0.050000 -0.000004 0.100000
v -0.050000 0.399996 0.100000
v -0.050000 5.399997 0.100000
v -0.050000 4.999996 0.100000
v 8.500000 -0.000004 3.099999
v 8.500000 -0.000004 -0.050000
v 8.300000 0.199996 2.799999
v 8.500000 5.399997 3.099999
v 8.499998 4.699996 0.000000
v 8.499998 3.779995 0.000000
v 8.499998 4.699996 2.120000
v 8.499998 3.779995 2.120000
v 8.300000 0.199996 3.099999
v 8.499998 5.399994 -0.050000
v 8.299999 5.199996 2.800001
v 0.200000 5.199996 2.799999
v 8.399999 4.699996 0.000000
v 8.399999 3.779995 0.000000
v 8.399999 4.699996 2.120000
v 8.399999 3.779995 2.120000
v 8.299999 5.199996 3.099999
v 0.200000 5.199996 3.099999
v 0.200000 0.199996 2.799999
v -0.020000 3.566662 3.400000
v -0.020000 1.833330 3.400000
v 0.000000 3.566662 3.400000
v 0.000000 1.833330 3.400000
v -0.020000 3.599997 3.500000
v -0.020000 1.799996 3.500000
v 0.000000 2.699995 3.200000
v 0.100000 2.699996 3.099999
v -0.020000 2.699995 3.200000
v -0.020000 2.699996 3.099999
vt 0.441369 0.489560
vt 0.448452 0.489560
vt 0.448452 0.509395
vt 0.441369 0.509394
vt 0.311513 0.516476
vt 0.311513 0.509394
vt 0.441369 0.516476
vt 0.311513 0.489560
vt 0.311513 0.482478
vt 0.441369 0.482478
vt 0.441370 0.489455
vt 0.441369 0.509288
vt 0.311513 0.509288
vt 0.311513 0.489455
vt 0.311513 0.516623
vt 0.311513 0.509539
vt 0.441369 0.509539
vt 0.441369 0.516623
vt 0.311513 0.489707
vt 0.441369 0.489707
vt 0.311513 0.482625
vt 0.441369 0.482625
vt 0.163237 0.498993
vt 0.051413 0.498994
vt 0.052610 0.497074
vt 0.161306 0.497063
vt 0.040703 0.499466
vt 0.040701 0.494233
vt 0.260563 0.494183
vt 0.260564 0.499417
vt 0.039197 0.495600
vt 0.039195 0.490351
vt 0.259662 0.490302
vt 0.259664 0.495551
vt 0.161171 0.492928
vt 0.161173 0.498962
vt 0.052558 0.498975
vt 0.052557 0.492942
vt 0.052610 0.491036
vt 0.161305 0.491024
vt 0.036847 0.490277
vt 0.261656 0.490277
vt 0.050641 0.491000
vt 0.162398 0.491000
vt 0.263580 0.499465
vt 0.038180 0.499466
vt 0.442972 0.487895
vt 0.442972 0.489105
vt 0.430877 0.489105
vt 0.430877 0.487896
vt 0.442465 0.489592
vt 0.442465 0.490801
vt 0.430369 0.490802
vt 0.430369 0.489592
vt 0.442465 0.496850
vt 0.430369 0.496850
vt 0.430877 0.496363
vt 0.430877 0.495153
vt 0.442972 0.495153
vt 0.442972 0.496362
vt 0.430369 0.498058
vt 0.442465 0.498058
vt 0.365688 0.501132
vt 0.365695 0.499532
vt 0.457367 0.499532
vt 0.457359 0.501131
vt 0.457389 0.499592
vt 0.365718 0.499560
vt 0.365720 0.493582
vt 0.457391 0.493614
vt 0.365695 0.483390
vt 0.457366 0.483389
vt 0.365710 0.501160
vt 0.457381 0.501192
vt 0.921126 0.150619
vt 0.961360 0.150619
vt 0.961360 0.520776
vt 0.921125 0.520776
vt 0.696718 0.197752
vt 0.696719 0.020721
vt 0.712813 0.020721
vt 0.712813 0.197752
vt 0.696749 0.378610
vt 0.696749 0.201579
vt 0.712842 0.201579
vt 0.712843 0.378610
vt 0.850440 0.102044
vt 0.914817 0.102044
vt 0.898723 0.118137
vt 0.850440 0.118138
vt 0.914814 0.520481
vt 0.898721 0.504388
vt 0.850440 0.504386
vt 0.850440 0.520479
vt 0.451284 0.483328
vt 0.451284 0.484538
vt 0.439188 0.484538
vt 0.439188 0.483328
vt 0.457332 0.498448
vt 0.457332 0.507520
vt 0.433140 0.507520
vt 0.433140 0.498448
vt 0.457332 0.496631
vt 0.433140 0.496631
vt 0.022824 0.480658
vt 0.690715 0.480658
vt 0.690715 0.227181
vt 0.022824 0.227181
vt 0.002707 0.227181
vt 0.002707 0.239251
vt 0.005121 0.239251
vt 0.442202 0.488026
vt 0.442192 0.489783
vt 0.341509 0.489783
vt 0.341520 0.488026
vt 0.457322 0.490470
vt 0.457322 0.496252
vt 0.318546 0.496252
vt 0.324329 0.490469
vt 0.271652 0.498831
vt 0.271652 0.490261
vt 0.280221 0.490261
vt 0.280221 0.491976
vt 0.280221 0.490248
vt 0.271652 0.491962
vt 0.271652 0.483393
vt 0.457323 0.495961
vt 0.291647 0.495961
vt 0.451610 0.490248
vt 0.296087 0.917876
vt 0.288039 0.917876
vt 0.288305 0.751253
vt 0.296352 0.751253
vt 0.358534 0.377446
vt 0.559706 0.377447
vt 0.559706 0.401587
vt 0.358534 0.433775
vt 0.318328 0.498674
vt 0.318350 0.496252
vt 0.457125 0.496252
vt 0.457103 0.498674
vt 0.451910 0.490561
vt 0.451877 0.493461
vt 0.285712 0.493404
vt 0.285745 0.490504
vt 0.375285 0.751099
vt 0.383331 0.751099
vt 0.383066 0.917722
vt 0.375019 0.917722
vt 0.457323 0.486262
vt 0.291647 0.486262
vt 0.291678 0.483371
vt 0.457322 0.483531
vt 0.324329 0.483531
vt 0.457235 0.498823
vt 0.274991 0.498760
vt 0.452006 0.488828
vt 0.285842 0.488772
vt 0.275124 0.483408
vt 0.457368 0.483471
vt 0.141268 0.401587
vt 0.157362 0.401587
vt 0.141268 0.433775
vt 0.285810 0.491672
vt 0.451974 0.491728
vt 0.575799 0.433775
vt 0.575800 0.401587
vt 0.451610 0.491975
vt 0.987538 0.599342
vt 0.987538 0.986614
vt 0.997100 0.996176
vt 0.997100 0.599342
vt 0.973195 0.599342
vt 0.973195 0.986614
vt 0.435422 0.998320
vt 0.002097 0.998322
vt 0.374983 0.917779
vt 0.296601 0.942944
vt 0.296601 0.934897
vt 0.370632 0.934897
vt 0.370632 0.942944
vt 0.973193 0.747558
vt 0.987536 0.747558
vt 0.022826 0.512845
vt 0.005122 0.512845
vt 0.440255 0.495592
vt 0.335701 0.495592
vt 0.157362 0.377447
vt 0.002303 0.744952
vt 0.296512 0.750623
vt 0.451610 0.483392
vt 0.997098 0.737996
vt 0.451610 0.498831
vt 0.375486 0.750625
vt 0.435682 0.744815
vt 0.291617 0.498853
vt 0.457292 0.498853
vt 0.371094 0.932072
vt 0.297063 0.932072
vt 0.297062 0.924025
vt 0.371094 0.924025
vt 0.442014 0.488026
vt 0.442003 0.489783
vt 0.341322 0.489783
vt 0.341332 0.488026
vt 0.442146 0.488128
vt 0.442136 0.489885
vt 0.341453 0.489886
vt 0.341464 0.488128
vt 0.447812 0.495592
vt 0.343258 0.495592
vt 0.444072 0.495694
vt 0.339517 0.495694
vt 0.451342 0.490470
vt 0.318349 0.490470
vt 0.318525 0.498674
vt 0.457300 0.498673
vt 0.451342 0.483531
vt 0.318349 0.483531
usemtl Exterior_Mat
s off
f 245/359 249/360 247/361 243/362
f 242/362 246/361 248/360 244/359
f 256/363 254/364 243/362 247/365
f 254/364 252/366 245/359 243/362
f 252/366 250/367 249/368 245/359
f 257/369 251/370 248/371 246/372
f 246/365 242/362 255/364 257/363
f 257/373 255/374 254/375 256/376
f 242/362 244/359 253/366 255/364
f 255/374 253/377 252/378 254/375
f 244/359 248/368 251/367 253/366
f 253/377 251/379 250/380 252/378
f 247/369 249/370 250/371 256/372
f 256/369 250/370 251/371 257/372
f 258/381 259/382 260/383 261/384
f 262/385 260/386 263/387 264/388
f 261/389 265/390 266/391 267/392
f 267/393 266/394 264/395 263/396
f 262/397 265/398 261/384 260/383
f 263/387 260/386 259/399 268/400
f 267/393 263/396 268/401 269/402
f 269/403 258/404 261/389 267/392
f 285/405 293/406 290/407 281/408
f 284/409 291/410 286/411 278/412
f 288/413 287/414 286/411 291/410
f 280/415 289/416 292/417 282/418
f 292/417 289/416 290/407 293/406
f 279/419 287/414 288/413 283/420
f 297/421 299/422 277/423 271/424
f 298/425 275/426 272/427 300/428
f 301/427 295/429 276/430 270/428
f 273/431 275/426 298/425 296/432
f 296/421 298/422 299/423 297/424
f 277/423 299/422 301/427 270/428
f 299/423 298/422 300/427 301/428
f 272/427 274/429 294/430 300/428
f 300/427 294/429 295/430 301/428
f 302/433 305/434 304/435 303/436
f 315/437 313/438 316/439 321/440
f 310/441 312/442 320/443 319/444
f 317/445 307/446 309/447 314/448
f 309/447 307/446 306/449 308/450
f 318/451 308/450 306/449 311/452
f 349/453 359/454 362/455 354/456
f 365/457 347/458 348/459 366/460
f 360/454 335/461 336/462 361/455
f 337/461 365/457 366/460 338/462
f 331/463 370/464 376/465 333/466
f 333/466 347/467 365/468 337/469
f 388/470 386/471 356/472 340/473
f 336/469 363/468 353/467 326/466
f 395/474 394/475 339/476 328/477
f 350/453 360/454 361/455 351/456
f 327/478 352/479 364/480 335/481
f 359/454 337/461 338/462 362/455
f 335/461 364/457 363/460 336/462
f 364/457 352/458 353/459 363/460
f 338/482 366/481 348/483 332/484
f 339/485 362/486 338/482 328/487
f 373/488 381/489 379/490 371/491
f 355/492 378/493 384/494 334/495
f 392/496 394/497 358/498 345/499
f 340/500 356/501 359/502 349/503
f 372/504 380/505 382/506 374/507
f 345/430 358/508 360/509 350/510
f 393/511 395/474 328/477 329/512
f 330/513 337/514 359/502 356/501
f 357/515 361/516 336/517 323/518
f 324/519 346/520 334/495 341/521
f 351/522 361/516 357/515 342/523
f 343/524 334/495 384/494 331/525
f 322/526 335/481 360/509 358/508
f 384/527 383/528 370/529 331/530
f 384/527 378/531 377/532 383/528
f 370/533 367/534 374/488 373/535
f 374/536 382/537 381/538 373/539
f 369/540 375/541 383/528 377/532
f 341/542 323/543 324/463
f 386/471 390/544 330/545 356/472
f 375/528 369/532 385/531 346/527
f 385/546 355/492 334/495 346/520
f 374/488 367/534 368/547 372/548
f 338/482 332/484 329/549 328/487
f 330/543 331/463 333/466 337/469
f 326/466 368/465 367/464 324/463
f 375/541 367/550 370/529 383/528
f 336/469 326/466 324/463 323/543
f 324/530 367/529 375/528 346/527
f 331/463 330/543 343/542
f 322/526 325/551 327/478 335/481
f 370/533 373/535 371/552 376/553
f 354/554 362/486 339/485 344/555
f 379/556 380/557 372/558 371/559
f 371/552 372/548 368/547 376/553
f 342/560 357/561 387/562 389/563
f 389/564 387/565 386/566 388/567
f 357/561 323/568 391/569 387/562
f 387/565 391/570 390/571 386/566
f 322/572 358/498 394/497 395/573
f 344/574 339/476 394/475 392/575
f 325/576 322/572 395/573 393/577
o Interior_Ceiling
v 1.210000 2.690003 2.500000
v 6.190000 0.210001 2.500000
v 0.210000 2.690003 2.500000
v 0.210000 0.210001 2.500000
v 1.210000 5.190002 2.500000
v 6.190000 5.190002 2.500000
v 6.310000 5.190000 2.500000
v 8.290000 5.190000 2.500000
v 6.310000 0.210001 2.500000
v 8.290000 0.210001 2.500000
vt 0.001221 0.450602
vt 0.187596 0.076350
vt 0.375473 0.076351
vt 0.375473 0.450602
vt 0.375472 0.301805
vt 0.001220 0.301805
vt 0.001221 0.001200
vt 0.187596 0.001200
usemtl Interior_Mat
s off
f 397/578 396/579 400/580 401/581
f 402/582 403/581 405/578 404/583
f 396/579 397/578 399/584 398/585
o Exterior_Roof
v 0.200000 0.199996 2.800000
v 8.300000 0.199996 2.800000
v 8.300000 5.199996 2.800000
v 0.200000 5.199996 2.800000
v 4.250000 0.199996 2.800000
v 4.250000 5.199996 2.800000
v 0.200000 2.699996 2.800000
v 8.300000 2.699996 2.800000
v 4.250000 2.699996 2.800000
vt 0.617623 0.989810
vt 0.617623 0.756486
vt 0.761650 0.756486
vt 0.761650 0.989810
usemtl Exterior_Mat
s off
f 414/586 413/587 408/588 411/589
f 412/586 414/587 411/588 409/589
f 410/586 407/587 413/588 414/589
f 406/586 410/587 414/588 412/589
o GlassPanes
v 0.145000 2.579996 0.520000
v 0.145000 0.619997 0.520000
v 0.145000 0.619997 2.180000
v 0.145000 2.579996 2.180000
v 0.880000 2.744996 2.180000
v 0.320000 2.744996 2.180000
v 0.320000 2.744996 0.520000
v 0.880000 2.744996 0.520000
v 0.155000 0.619997 2.180000
v 0.155000 0.619997 0.520000
v 0.155000 2.579996 2.180000
v 0.155000 2.579996 0.520000
v 0.880000 2.754996 0.520000
v 0.320000 2.754996 2.180000
v 0.880000 2.754996 2.180000
v 0.320000 2.754996 0.520000
vt 0.969563 0.631003
vt 0.969563 0.823927
vt 0.904480 0.823927
vt 0.904480 0.631003
vt 0.827238 0.995748
vt 0.827238 0.827277
vt 0.969922 0.827277
vt 0.969922 0.995747
usemtl GlassPanes_Mat
s off
f 430/590 428/591 429/592 427/593
f 424/594 426/595 425/596 423/597
f 416/597 417/594 418/595 415/596
f 422/590 419/591 420/592 421/593
o DoorGlass
v 1.174980 3.824999 0.565003
v 1.174985 3.824998 0.210003
v 1.174985 4.174999 0.210002
v 1.174980 4.174999 0.565002
v 1.164980 3.824999 0.565003
v 1.164980 4.174999 0.565002
v 1.164985 4.174999 0.210002
v 1.164985 3.824998 0.210003
v 1.174980 3.824999 1.465004
v 1.174985 3.824999 1.020004
v 1.174985 4.174999 1.020002
v 1.174980 4.175000 1.465003
v 1.164980 3.824999 1.465004
v 1.164985 3.824999 1.020003
v 1.164985 3.474999 1.020004
v 1.164980 3.474999 1.465005
v 1.164980 4.175000 1.465003
v 1.164985 4.174999 1.020002
v 1.164975 3.824999 1.910005
v 1.164975 3.474999 1.910006
v 1.164975 4.175000 1.910004
v 1.164980 3.474998 0.565003
v 1.164985 3.474998 0.210003
v 1.164975 3.824999 0.920002
v 1.164975 4.174999 0.920002
v 1.164975 3.474999 0.920003
v 1.174980 3.474998 0.565004
v 1.174985 3.474998 0.210004
v 1.174975 3.824999 0.920003
v 1.174975 4.174999 0.920002
v 1.174975 3.474999 0.920004
v 1.174980 3.474999 1.465006
v 1.174985 3.474999 1.020005
v 1.174975 3.824999 1.910005
v 1.174975 4.175000 1.910004
v 1.174975 3.474999 1.910007
vt 0.967156 0.994845
vt 0.813008 0.994845
vt 0.813008 0.842869
vt 0.967155 0.842869
vt 0.966478 0.995686
vt 0.814502 0.995686
vt 0.814501 0.841539
vt 0.966478 0.841538
vt 0.996039 0.995332
vt 0.802811 0.995266
vt 0.802863 0.843290
vt 0.996090 0.843356
vt 0.996648 0.995222
vt 0.803420 0.995222
vt 0.803420 0.843246
vt 0.996648 0.843246
vt 0.997062 0.995615
vt 0.803834 0.995615
vt 0.803834 0.843639
vt 0.997062 0.843639
vt 0.995738 0.995222
vt 0.802510 0.995223
vt 0.802510 0.843246
vt 0.995738 0.843246
vt 0.996322 0.995222
vt 0.803094 0.995222
vt 0.803094 0.843246
vt 0.996322 0.843246
vt 0.955534 0.996089
vt 0.803558 0.996089
vt 0.803558 0.841941
vt 0.955535 0.841941
vt 0.977096 0.996433
vt 0.825120 0.996433
vt 0.825119 0.842286
vt 0.977096 0.842285
vt 0.974786 0.997085
vt 0.822810 0.997085
vt 0.822810 0.842938
vt 0.974786 0.842938
vt 0.809180 0.843365
vt 0.963327 0.843365
vt 0.963328 0.995341
vt 0.809180 0.995342
vt 0.980265 0.995169
vt 0.826117 0.995169
vt 0.826116 0.843193
vt 0.980264 0.843193
vt 0.831343 0.843356
vt 0.985491 0.843356
vt 0.985492 0.995332
vt 0.831344 0.995332
vt 0.995688 0.995332
vt 0.802461 0.995332
vt 0.802460 0.843356
vt 0.995688 0.843356
vt 0.996039 0.994356
vt 0.802812 0.994356
vt 0.802811 0.842380
vt 0.996038 0.842379
vt 0.996384 0.995103
vt 0.803157 0.995103
vt 0.803156 0.843127
vt 0.996383 0.843126
usemtl DoorGlass_Mat
s off
f 431/598 432/599 433/600 434/601
f 435/602 436/603 437/604 438/605
f 439/606 440/607 441/608 442/609
f 443/610 444/611 445/612 446/613
f 447/614 448/615 444/616 443/617
f 449/618 443/619 446/620 450/621
f 451/622 447/623 443/624 449/625
f 452/626 435/627 438/628 453/629
f 454/630 455/631 436/632 435/633
f 456/634 454/635 435/636 452/637
f 432/638 431/639 457/640 458/641
f 459/642 431/643 434/644 460/645
f 431/646 459/647 461/648 457/649
f 462/650 463/651 440/652 439/653
f 464/654 439/655 442/656 465/657
f 466/658 462/659 439/660 464/661
o Doors
v 8.320004 3.960000 0.960001
v 8.320004 3.819999 0.960001
v 8.310003 3.819999 0.960001
v 8.310003 3.960000 0.960001
v 8.310003 3.819999 0.980002
v 8.310003 3.960000 0.980002
v 8.320004 3.819999 0.980002
v 8.320004 3.960000 0.980002
v 8.419997 3.819999 0.980002
v 8.419997 3.819999 0.960005
v 8.429997 3.819999 0.960005
v 8.429997 3.819999 0.980002
v 8.429997 3.960000 0.960005
v 8.429997 3.960000 0.980002
v 8.419997 3.960000 0.980002
v 8.419997 3.960000 0.960005
v 8.347003 3.868000 1.038002
v 8.347003 3.812000 1.038002
v 8.350003 3.809999 1.040003
v 8.350003 3.870000 1.040003
v 8.389997 3.870000 1.040003
v 8.389997 3.809999 1.040003
v 8.392997 3.812000 1.038002
v 8.392997 3.868000 1.038002
v 8.347003 3.868000 0.862001
v 8.350003 3.870000 0.860000
v 8.392997 3.868000 0.862004
v 8.389997 3.870000 0.860004
v 8.389997 3.809999 0.860004
v 8.392997 3.812000 0.862004
v 8.347003 3.812000 0.862001
v 8.350003 3.809999 0.860000
v 8.320004 3.846000 0.976002
v 8.320004 3.834001 0.976002
v 8.347003 3.834001 0.976002
v 8.347003 3.846000 0.976002
v 8.320004 3.834001 0.964002
v 8.347003 3.834001 0.964002
v 8.419997 3.846000 0.964002
v 8.419997 3.834001 0.964002
v 8.392997 3.834001 0.964002
v 8.392997 3.846000 0.964002
v 8.347003 3.846000 0.964002
v 8.320004 3.846000 0.964002
v 8.392997 3.846000 0.976002
v 8.392997 3.834001 0.976002
v 8.419997 3.834001 0.976002
v 8.419997 3.846000 0.976002
v 8.349992 3.790002 2.110002
v 8.349993 4.690001 2.110002
v 8.350014 4.690000 0.010000
v 8.350012 3.790000 0.010000
v 8.389987 3.790002 2.110006
v 8.390006 3.790000 0.010005
v 8.390007 4.690000 0.010000
v 8.389988 4.690001 2.110002
v 6.219982 3.959990 0.960001
v 6.219982 3.819989 0.960001
v 6.209982 3.819989 0.960001
v 6.209982 3.959990 0.960001
v 6.209982 3.819989 0.980002
v 6.209982 3.959990 0.980002
v 6.219982 3.819989 0.980002
v 6.219982 3.959990 0.980002
v 6.319977 3.819989 0.980002
v 6.319977 3.819989 0.960005
v 6.329977 3.819989 0.960005
v 6.329977 3.819989 0.980002
v 6.329977 3.959990 0.960005
v 6.329977 3.959990 0.980002
v 6.319977 3.959990 0.980002
v 6.319977 3.959990 0.960005
v 6.246983 3.867990 1.038002
v 6.246983 3.811990 1.038002
v 6.249983 3.809989 1.040003
v 6.249983 3.869990 1.040003
v 6.289976 3.869990 1.040003
v 6.289976 3.809989 1.040003
v 6.292976 3.811990 1.038002
v 6.292976 3.867990 1.038002
v 6.246983 3.867990 0.862001
v 6.249983 3.869990 0.860000
v 6.292976 3.867990 0.862004
v 6.289976 3.869990 0.860004
v 6.289976 3.809989 0.860004
v 6.292976 3.811990 0.862004
v 6.246983 3.811990 0.862001
v 6.249983 3.809989 0.860000
v 6.219982 3.845990 0.976002
v 6.219982 3.833989 0.976002
v 6.246983 3.833989 0.976002
v 6.246983 3.845990 0.976002
v 6.219982 3.833989 0.964002
v 6.246983 3.833989 0.964002
v 6.319977 3.845990 0.964002
v 6.319977 3.833989 0.964002
v 6.292976 3.833989 0.964002
v 6.292976 3.845990 0.964002
v 6.246983 3.845990 0.964002
v 6.219982 3.845990 0.964002
v 6.292976 3.845990 0.976002
v 6.292976 3.833989 0.976002
v 6.319977 3.833989 0.976002
v 6.319977 3.845990 0.976002
v 6.249971 3.789990 2.110002
v 6.249972 4.689990 2.110002
v 6.249993 4.689990 0.010000
v 6.249991 3.789989 0.010000
v 6.289967 3.789990 2.110006
v 6.289986 3.789989 0.010005
v 6.289986 4.689990 0.010000
v 6.289967 4.689990 2.110002
v 1.154980 3.474999 1.020002
v 1.154980 4.174999 1.020002
v 1.154980 4.174999 0.920002
v 1.154980 3.474999 0.920002
v 1.184980 3.474999 0.920006
v 1.184980 4.174999 0.920002
v 1.184980 4.174999 1.020002
v 1.184980 3.474999 1.020006
v 1.119983 3.544998 0.960001
v 1.119982 3.404999 0.960001
v 1.109982 3.404999 0.960001
v 1.109983 3.544998 0.960001
v 1.109982 3.404999 0.980002
v 1.109983 3.544998 0.980002
v 1.119982 3.404999 0.980002
v 1.119983 3.544998 0.980002
v 1.219977 3.404999 0.980002
v 1.219977 3.404999 0.960005
v 1.229977 3.404999 0.960005
v 1.229977 3.404999 0.980002
v 1.229977 3.544998 0.960005
v 1.229977 3.544998 0.980002
v 1.219977 3.544998 0.980002
v 1.219977 3.544998 0.960005
v 1.146983 3.452998 1.038002
v 1.146983 3.396999 1.038002
v 1.149982 3.394999 1.040003
v 1.149983 3.454998 1.040003
v 1.189977 3.454998 1.040003
v 1.189977 3.394999 1.040003
v 1.192976 3.396999 1.038002
v 1.192977 3.452998 1.038002
v 1.146983 3.452998 0.862001
v 1.149983 3.454998 0.860000
v 1.192977 3.452998 0.862004
v 1.189977 3.454998 0.860004
v 1.189977 3.394999 0.860004
v 1.192976 3.396999 0.862004
v 1.146983 3.396999 0.862001
v 1.149982 3.394999 0.860000
v 1.119983 3.430998 0.976002
v 1.119982 3.418999 0.976002
v 1.146983 3.418999 0.976002
v 1.146983 3.430998 0.976002
v 1.119982 3.418999 0.964002
v 1.146983 3.418999 0.964002
v 1.219977 3.430998 0.964002
v 1.219977 3.418999 0.964002
v 1.192977 3.418999 0.964002
v 1.192977 3.430998 0.964002
v 1.146983 3.430998 0.964002
v 1.119983 3.430998 0.964002
v 1.192977 3.430998 0.976002
v 1.192977 3.418999 0.976002
v 1.219977 3.418999 0.976002
v 1.219977 3.430998 0.976002
v 1.189967 3.374999 2.110005
v 1.189967 4.275000 2.110002
v 1.149972 4.275000 2.110002
v 1.149971 3.374999 2.110002
v 1.149972 4.174999 1.910003
v 1.149972 3.474999 1.910003
v 1.149992 3.374998 0.010000
v 1.189986 3.374998 0.010005
v 1.189967 3.474999 1.910007
v 1.189967 4.174999 1.910003
v 1.189986 4.274998 0.010000
v 1.189986 4.174999 0.210002
v 1.189986 3.474998 0.210006
v 1.149993 4.274998 0.010000
v 1.149993 4.174999 0.210002
v 1.149992 3.474998 0.210002
vt 0.807924 0.723564
vt 0.807924 0.572636
vt 0.818705 0.572638
vt 0.818704 0.723568
vt 0.840268 0.572639
vt 0.840266 0.723569
vt 0.818706 0.561857
vt 0.840269 0.561857
vt 0.851048 0.572640
vt 0.851047 0.723568
vt 0.825668 0.565198
vt 0.847225 0.565198
vt 0.847226 0.575976
vt 0.825668 0.575978
vt 0.847225 0.726905
vt 0.825667 0.726909
vt 0.814886 0.726908
vt 0.814888 0.575976
vt 0.858007 0.575973
vt 0.858007 0.726898
vt 0.806092 0.742538
vt 0.866464 0.742538
vt 0.868621 0.746426
vt 0.803936 0.746426
vt 0.868257 0.747260
vt 0.803572 0.747260
vt 0.805729 0.743372
vt 0.866101 0.743372
vt 0.806092 0.552796
vt 0.802206 0.744696
vt 0.802206 0.550639
vt 0.866101 0.553633
vt 0.869988 0.551477
vt 0.869988 0.745530
vt 0.801842 0.745529
vt 0.801842 0.551477
vt 0.805730 0.553633
vt 0.866464 0.552796
vt 0.870441 0.550640
vt 0.870441 0.744691
vt 0.858946 0.727371
vt 0.837388 0.727371
vt 0.837388 0.576440
vt 0.858946 0.576440
vt 0.821779 0.704928
vt 0.821779 0.691992
vt 0.850886 0.691992
vt 0.850886 0.704928
vt 0.803572 0.549746
vt 0.868257 0.549746
vt 0.821778 0.679056
vt 0.850886 0.679055
vt 0.850885 0.661905
vt 0.850885 0.674841
vt 0.821778 0.674841
vt 0.821778 0.661905
vt 0.847227 0.737687
vt 0.825669 0.737691
vt 0.803936 0.548909
vt 0.868621 0.548909
vt 0.835374 0.732551
vt 0.813811 0.732550
vt 0.813811 0.581619
vt 0.835374 0.581619
vt 0.850886 0.717865
vt 0.821779 0.717865
vt 0.850885 0.666120
vt 0.821778 0.666120
vt 0.821778 0.700714
vt 0.821778 0.687778
vt 0.850886 0.687778
vt 0.850886 0.700714
vt 0.821779 0.713651
vt 0.850887 0.713651
vt 0.840265 0.734351
vt 0.818702 0.734350
vt 0.793560 0.991813
vt 0.403700 0.991813
vt 0.403700 0.082141
vt 0.793560 0.082141
vt 0.775500 0.991813
vt 0.758175 0.991811
vt 0.758175 0.082149
vt 0.775500 0.082151
vt 0.403702 0.973750
vt 0.403702 0.956426
vt 0.793563 0.956426
vt 0.793564 0.973750
vt 0.776211 0.082142
vt 0.793536 0.082143
vt 0.793534 0.991848
vt 0.776211 0.991848
vt 0.403696 0.974485
vt 0.793556 0.974485
vt 0.814114 0.724214
vt 0.814114 0.573287
vt 0.824894 0.573288
vt 0.824894 0.724213
vt 0.846459 0.573291
vt 0.846458 0.724213
vt 0.824893 0.562500
vt 0.846461 0.562507
vt 0.857239 0.573288
vt 0.857237 0.724208
vt 0.824653 0.565847
vt 0.846210 0.565846
vt 0.846211 0.576626
vt 0.824654 0.576625
vt 0.846210 0.727553
vt 0.824653 0.727556
vt 0.813872 0.727556
vt 0.813873 0.576625
vt 0.856992 0.576624
vt 0.856992 0.727549
vt 0.806002 0.743052
vt 0.866374 0.743052
vt 0.868531 0.746940
vt 0.803846 0.746940
vt 0.868710 0.746422
vt 0.804025 0.746423
vt 0.806182 0.742535
vt 0.866554 0.742534
vt 0.806002 0.553310
vt 0.802115 0.745210
vt 0.802115 0.551153
vt 0.866555 0.552796
vt 0.802295 0.744692
vt 0.802295 0.550640
vt 0.806183 0.552796
vt 0.866374 0.553311
vt 0.870261 0.551153
vt 0.870261 0.745209
vt 0.835550 0.727371
vt 0.813991 0.727371
vt 0.813991 0.576440
vt 0.835549 0.576440
vt 0.821779 0.647130
vt 0.821779 0.634195
vt 0.850886 0.634195
vt 0.850887 0.647130
vt 0.804026 0.548909
vt 0.868710 0.548909
vt 0.821778 0.621258
vt 0.850886 0.621258
vt 0.850886 0.612536
vt 0.850886 0.625472
vt 0.821778 0.625473
vt 0.821778 0.612536
vt 0.846213 0.738334
vt 0.824654 0.738338
vt 0.803846 0.549423
vt 0.868531 0.549423
vt 0.858774 0.732551
vt 0.837211 0.732551
vt 0.837211 0.581620
vt 0.858774 0.581620
vt 0.850887 0.660067
vt 0.821779 0.660067
vt 0.850886 0.608322
vt 0.821778 0.608322
vt 0.821779 0.651345
vt 0.821779 0.638409
vt 0.850886 0.638409
vt 0.850886 0.651345
vt 0.821779 0.664282
vt 0.850886 0.664282
vt 0.846460 0.734994
vt 0.824896 0.734998
vt 0.397847 0.991895
vt 0.007987 0.991895
vt 0.007987 0.082223
vt 0.397847 0.082223
vt 0.397851 0.991896
vt 0.380527 0.991894
vt 0.380527 0.082232
vt 0.397852 0.082234
vt 0.007986 0.974567
vt 0.397847 0.974567
vt 0.362432 0.082221
vt 0.379756 0.082221
vt 0.379755 0.991926
vt 0.362432 0.991926
vt 0.397846 0.973829
vt 0.007984 0.973830
vt 0.007985 0.956504
vt 0.397846 0.956504
vt 0.932378 0.044977
vt 0.932379 0.320677
vt 0.892993 0.320677
vt 0.892992 0.044977
vt 0.983579 0.044977
vt 0.983581 0.320677
vt 0.944195 0.320677
vt 0.944194 0.044977
vt 0.881178 0.320677
vt 0.881176 0.044977
vt 0.854981 0.579505
vt 0.854980 0.730259
vt 0.844212 0.730259
vt 0.844212 0.579505
vt 0.822675 0.730259
vt 0.822675 0.579504
vt 0.844212 0.741027
vt 0.822675 0.741027
vt 0.811907 0.730259
vt 0.811907 0.579503
vt 0.845705 0.733256
vt 0.824172 0.733255
vt 0.824172 0.722487
vt 0.845705 0.722488
vt 0.824171 0.571734
vt 0.845703 0.571733
vt 0.856473 0.571731
vt 0.856473 0.722489
vt 0.813404 0.722488
vt 0.813402 0.571734
vt 0.805566 0.743219
vt 0.865868 0.743221
vt 0.868022 0.747104
vt 0.803412 0.747102
vt 0.867325 0.746739
vt 0.802714 0.746738
vt 0.804870 0.742855
vt 0.865171 0.742856
vt 0.805568 0.553697
vt 0.801684 0.745374
vt 0.801686 0.551543
vt 0.865171 0.553338
vt 0.869053 0.551185
vt 0.869053 0.745011
vt 0.800988 0.745009
vt 0.800988 0.551184
vt 0.804871 0.553338
vt 0.865868 0.553697
vt 0.869750 0.551540
vt 0.869750 0.745375
vt 0.838206 0.579248
vt 0.859739 0.579248
vt 0.859741 0.730002
vt 0.838208 0.730002
vt 0.854603 0.645275
vt 0.854604 0.658196
vt 0.825529 0.658196
vt 0.825530 0.645275
vt 0.802716 0.549456
vt 0.867325 0.549456
vt 0.854604 0.671118
vt 0.825529 0.671118
vt 0.854059 0.599383
vt 0.854059 0.612304
vt 0.824986 0.612305
vt 0.824986 0.599384
vt 0.824170 0.560967
vt 0.845703 0.560965
vt 0.803415 0.549815
vt 0.868023 0.549815
vt 0.815201 0.579248
vt 0.836738 0.579248
vt 0.836738 0.730002
vt 0.815201 0.730002
vt 0.825530 0.632354
vt 0.854603 0.632354
vt 0.825529 0.684039
vt 0.854603 0.684039
vt 0.824986 0.638147
vt 0.824986 0.625226
vt 0.854060 0.625226
vt 0.854061 0.638146
vt 0.824986 0.651069
vt 0.854061 0.651068
vt 0.822676 0.568736
vt 0.844213 0.568737
vt 0.991735 0.005866
vt 0.991735 0.360337
vt 0.975983 0.360337
vt 0.975982 0.005866
vt 0.897212 0.320951
vt 0.897211 0.045252
vt 0.991575 0.832956
vt 0.975823 0.832954
vt 0.975824 0.005862
vt 0.991577 0.005864
vt 0.881459 0.045251
vt 0.881460 0.320951
vt 0.802689 0.360337
vt 0.802688 0.005864
vt 0.802192 0.360858
vt 0.802190 0.006387
vt 0.880962 0.045772
vt 0.880964 0.321473
vt 0.936575 0.754187
vt 0.975961 0.832957
vt 0.936571 0.084632
vt 0.896716 0.321473
vt 0.896714 0.045772
vt 0.975486 0.006386
vt 0.975488 0.360858
vt 0.920820 0.084632
vt 0.920819 0.754186
vt 0.991237 0.006386
vt 0.991240 0.360858
vt 0.881434 0.005860
vt 0.881433 0.832958
vt 0.991711 0.832957
vt 0.936437 0.754183
vt 0.936440 0.084630
vt 0.920685 0.754185
vt 0.920685 0.084631
vt 0.881299 0.005860
vt 0.881299 0.832955
usemtl Door_Mat
s off
f 467/662 468/663 469/664 470/665
f 471/666 472/667 470/665 469/664
f 471/666 469/664 468/668 473/669
f 472/667 471/666 473/670 474/671
f 475/672 476/673 477/674 478/675
f 477/674 479/676 480/677 478/675
f 481/678 475/679 478/675 480/677
f 479/676 477/674 476/680 482/681
f 483/682 484/683 485/684 486/685
f 487/686 488/687 489/688 490/689
f 491/690 483/682 486/691 492/692
f 490/689 493/693 494/694 487/695
f 488/696 495/697 496/698 489/688
f 484/683 497/699 498/700 485/701
f 490/689 489/688 496/698 493/693
f 481/702 482/703 476/704 475/705
f 499/706 500/707 501/708 502/709
f 493/693 496/698 495/710 494/711
f 500/707 503/712 504/713 501/708
f 505/714 506/715 507/716 508/717
f 482/718 481/719 480/677 479/676
f 491/690 497/699 484/683 483/682
f 492/720 498/721 497/699 491/690
f 467/722 474/723 473/724 468/725
f 502/709 509/726 510/727 499/706
f 509/728 504/713 503/712 510/729
f 511/730 512/731 513/732 514/733
f 512/731 507/716 506/715 513/732
f 508/734 511/730 514/733 505/735
f 474/736 467/737 470/665 472/667
f 515/738 516/739 517/740 518/741
f 519/742 515/743 518/744 520/745
f 520/738 521/739 522/740 519/741
f 517/746 521/747 520/748 518/749
f 521/750 517/751 516/752 522/753
f 519/738 522/739 516/754 515/755
f 523/756 524/757 525/758 526/759
f 527/760 528/761 526/759 525/758
f 527/760 525/758 524/762 529/763
f 528/761 527/760 529/764 530/765
f 531/766 532/767 533/768 534/769
f 533/768 535/770 536/771 534/769
f 537/772 531/773 534/769 536/771
f 535/770 533/768 532/774 538/775
f 539/776 540/777 541/778 542/779
f 543/780 544/781 545/782 546/783
f 547/784 539/776 542/785 548/786
f 546/783 549/787 550/700 543/701
f 544/788 551/789 552/790 545/782
f 540/777 553/791 554/792 541/793
f 546/783 545/782 552/790 549/787
f 537/794 538/795 532/796 531/797
f 555/798 556/799 557/800 558/801
f 549/787 552/790 551/802 550/803
f 556/799 559/804 560/805 557/800
f 561/806 562/807 563/808 564/809
f 538/810 537/811 536/771 535/770
f 547/784 553/791 540/777 539/776
f 548/812 554/813 553/791 547/784
f 523/814 530/815 529/816 524/817
f 558/801 565/818 566/819 555/798
f 565/820 560/805 559/804 566/821
f 567/822 568/823 569/824 570/825
f 568/823 563/808 562/807 569/824
f 564/826 567/822 570/825 561/827
f 530/828 523/829 526/759 528/761
f 571/830 572/831 573/832 574/833
f 575/834 571/835 574/836 576/837
f 576/830 577/831 578/832 575/833
f 573/831 577/838 576/839 574/830
f 577/840 573/841 572/842 578/843
f 575/844 578/845 572/846 571/847
f 579/848 580/849 581/850 582/851
f 583/852 584/853 585/854 586/855
f 580/849 579/848 586/855 585/854
f 582/851 581/850 584/856 583/857
f 587/858 588/859 589/860 590/861
f 591/862 592/863 590/861 589/860
f 591/862 589/860 588/864 593/865
f 592/863 591/862 593/866 594/867
f 595/868 596/869 597/870 598/871
f 597/870 599/872 600/873 598/871
f 601/874 595/875 598/871 600/873
f 599/872 597/870 596/876 602/877
f 603/878 604/879 605/880 606/881
f 607/882 608/883 609/884 610/885
f 611/886 603/878 606/887 612/888
f 610/885 613/889 614/890 607/891
f 608/892 615/893 616/894 609/884
f 604/879 617/895 618/896 605/897
f 610/885 609/884 616/894 613/889
f 601/898 602/899 596/900 595/901
f 619/902 620/903 621/904 622/905
f 613/889 616/894 615/906 614/907
f 620/903 623/908 624/909 621/904
f 625/910 626/911 627/912 628/913
f 602/914 601/915 600/873 599/872
f 611/886 617/895 604/879 603/878
f 612/916 618/917 617/895 611/886
f 587/918 594/919 593/920 588/921
f 622/905 629/922 630/923 619/902
f 629/924 624/909 623/908 630/925
f 631/926 632/927 633/928 634/929
f 632/927 627/912 626/911 633/928
f 628/930 631/926 634/929 625/931
f 594/932 587/933 590/861 592/863
f 635/934 636/935 637/936 638/937
f 638/937 637/936 639/938 640/939
f 635/940 638/941 641/942 642/943
f 643/944 644/945 636/946 635/947
f 642/948 645/949 646/950 647/951
f 639/952 637/953 648/937 649/954
f 650/955 649/956 648/957 641/958
f 639/952 649/954 646/959 644/960
f 648/957 645/961 642/962 641/958
f 640/939 639/938 644/945 643/944
f 649/956 650/955 647/951 646/950
f 646/959 645/963 636/964 644/960
f 645/934 648/937 637/953 636/965
f 638/941 640/966 650/967 641/942
f 650/967 640/966 643/968 647/969
f 642/970 647/969 643/968 635/971
o Exterior_Walls02
v 1.100000 2.799996 2.400000
v 0.150000 4.849997 2.500000
v 0.150000 2.799996 2.500000
v 1.100000 4.849995 2.400000
v 0.150000 4.849997 2.400000
v 0.150000 2.799996 2.400000
v 0.900000 2.724997 0.500000
v 0.300000 2.724997 0.500000
v 0.900000 2.724997 2.200000
v 0.300000 2.724997 2.200000
v 0.900000 2.774997 0.500000
v 0.300000 2.774997 0.500000
v 0.300000 2.774997 2.200000
v 0.900000 2.774997 2.200000
v 0.175000 0.599997 2.200000
v 0.175000 2.599997 2.200000
v 0.175000 2.599997 0.500000
v 0.175000 0.599997 0.500000
v 0.125000 0.599997 0.500000
v 0.125000 2.599997 2.200000
v 0.125000 0.599997 2.200000
v 0.125000 2.599997 0.500000
v 0.125000 0.619997 2.180000
v 0.125000 0.619997 0.520000
v 0.175000 0.619997 0.520000
v 0.175000 0.619997 2.180000
v 0.320000 2.774997 2.180000
v 0.125000 2.579996 2.180000
v 0.175000 2.579996 2.180000
v 0.320000 2.774997 0.520000
v 0.125000 2.579996 0.520000
v 0.320000 2.724997 0.520000
v 0.320000 2.724997 2.180000
v 0.175000 2.579996 0.520000
v 0.880000 2.774997 0.520000
v 0.880000 2.724997 0.520000
v 0.880000 2.774997 2.180000
v 0.880000 2.724997 2.180000
v 0.900000 4.849995 0.450000
v 0.900000 2.799996 0.450000
v 0.300000 2.799996 0.450000
v 1.100000 4.384996 0.450000
v 0.900000 2.799996 0.100000
v 0.100000 0.599997 0.400000
v 0.100000 2.599997 0.400000
v 1.100000 3.264996 0.450000
v 0.900000 2.799996 0.050000
v 1.100000 4.384996 2.300000
v 1.100000 2.949996 2.300000
v 0.300000 4.849995 2.300000
v 0.100000 0.599997 2.300000
v 1.100000 2.949996 0.400000
v 1.100000 3.264996 0.050000
v 0.100000 2.599997 0.100000
v 0.300000 2.799996 0.100000
v 0.100000 0.599997 2.250000
v 0.080000 0.599997 0.050000
v 0.080000 2.599997 0.090000
v 0.080000 0.599997 0.450000
v 0.900000 4.849995 2.300000
v 0.080000 2.599997 0.440000
v 0.080000 2.599997 0.100000
v 0.080000 0.599997 0.100000
v 1.100000 4.384996 0.400000
v 1.100000 3.264996 2.300000
v 0.080000 2.599997 0.050000
v 0.080000 0.599997 0.400000
v 0.080000 0.599997 0.090000
v 0.080000 2.599997 0.400000
v 1.100000 4.384996 0.050000
v 1.100000 4.699995 2.300000
v 0.080000 0.599997 0.440000
v 0.080000 2.599997 0.450000
v 0.900000 4.849995 0.050000
v 0.080000 2.599997 0.410000
v 0.080000 0.599997 0.410000
v 0.080000 2.599997 0.060000
v 0.080000 0.599997 0.060000
v 1.100000 4.384996 0.100000
v 0.600000 4.849995 0.050000
v 0.070000 2.599997 0.090000
v 0.070000 2.599997 0.440000
v 0.070000 0.599997 0.090000
v 0.070000 0.599997 0.440000
v 0.070000 2.599997 0.410000
v 0.070000 0.599997 0.410000
v 0.070000 2.599997 0.060000
v 0.070000 0.599997 0.060000
v 0.080000 2.599997 2.300001
v 0.080000 0.599997 2.300001
v 0.080000 0.599997 2.289999
v 0.080000 2.599997 2.289999
v 0.080000 0.599997 2.260001
v 0.080000 2.599997 2.260001
v 0.080000 2.599997 2.250001
v 0.080000 0.599997 2.250001
v 0.070000 0.599997 2.289999
v 0.070000 2.599997 2.289999
v 0.070000 0.599997 2.260001
v 0.070000 2.599997 2.260001
v 1.080000 4.384996 0.450000
v 1.080000 4.699995 0.450000
v 1.080000 2.949996 0.450000
v 1.080000 3.264996 0.450000
v 1.080000 4.384996 0.440000
v 1.080000 2.949996 0.410000
v 1.080000 2.949996 0.440000
v 1.080000 2.949996 2.260000
v 1.080000 4.384996 2.260000
v 1.080000 2.949996 0.050000
v 1.080000 3.264996 0.100000
v 1.080000 4.384996 2.300000
v 1.080000 2.949996 2.300000
v 1.080000 3.264996 0.440000
v 1.080000 3.264996 0.410000
v 1.080000 3.264996 0.400000
v 1.080000 2.949996 0.400000
v 1.080000 4.699995 2.250001
v 1.080000 4.384996 2.250001
v 1.080000 2.949996 2.250001
v 1.080000 3.264996 0.060000
v 1.080000 2.949996 0.090000
v 1.080000 3.264996 0.050000
v 1.080000 2.949996 0.060000
v 1.080000 2.949996 0.100000
v 1.080000 3.264996 2.250001
v 1.080000 4.699995 0.410000
v 1.080000 3.264996 2.260000
v 1.080000 4.384996 0.090000
v 1.080000 2.949996 2.289999
v 1.080000 4.384996 2.289999
v 1.080000 3.264996 0.090000
v 1.080000 4.699995 0.060000
v 1.080000 4.699995 0.090000
v 1.080000 4.699995 2.260000
v 1.080000 4.699995 0.400000
v 1.080000 4.384996 0.400000
v 1.080000 3.264996 2.300000
v 1.080000 3.264996 2.289999
v 1.080000 4.384996 0.050000
v 1.080000 4.699995 0.050000
v 1.080000 4.699995 2.300000
v 1.080000 4.699995 2.289999
v 1.080000 4.699995 0.100000
v 1.080000 4.384996 0.100000
v 1.080000 4.384996 0.410000
v 1.080000 4.699995 0.440000
v 1.080000 4.384996 0.060000
v 1.070000 4.384996 0.440000
v 1.070000 2.949996 0.410000
v 1.070000 2.949996 0.440000
v 1.070000 2.949996 2.260000
v 1.070000 4.384996 2.260000
v 1.070000 3.264996 0.440000
v 1.070000 3.264996 0.410000
v 1.070000 3.264996 0.060000
v 1.070000 2.949996 0.090000
v 1.070000 2.949996 0.060000
v 1.070000 4.699995 0.410000
v 1.070000 3.264996 2.260000
v 1.070000 4.384996 0.090000
v 1.070000 2.949996 2.289999
v 1.070000 4.384996 2.289999
v 1.070000 3.264996 0.090000
v 1.070000 4.699995 0.060000
v 1.070000 4.699995 0.090000
v 1.070000 4.699995 2.260000
v 1.070000 3.264996 2.289999
v 1.070000 4.699995 2.289999
v 1.070000 4.384996 0.410000
v 1.070000 4.699995 0.440000
v 1.070000 4.384996 0.060000
v 0.900000 2.819997 0.450000
v 0.300000 2.819997 0.450000
v 0.900000 2.819997 0.100000
v 0.900000 2.819997 0.440000
v 0.900000 2.819997 0.090000
v 0.900000 2.819997 0.410000
v 0.300000 2.819997 0.410000
v 0.300000 2.819997 0.440000
v 0.900000 2.819997 0.050000
v 0.900000 2.819997 0.060000
v 0.300000 2.819997 0.050000
v 0.900000 2.819997 0.400000
v 0.300000 2.819997 2.300001
v 0.300000 2.819997 0.400000
v 0.300000 2.819997 2.289999
v 0.300000 2.819997 0.090000
v 0.300000 2.819997 2.260001
v 0.300000 2.819997 0.060000
v 0.300000 2.819997 0.100000
v 0.300000 2.819997 2.250001
v 0.900000 2.819997 2.250001
v 0.900000 2.819997 2.300001
v 0.900000 2.819997 2.260001
v 0.900000 2.819997 2.289999
v 0.900000 2.829994 0.440000
v 0.900000 2.829994 0.090000
v 0.900000 2.829994 0.410000
v 0.300000 2.829994 0.410000
v 0.300000 2.829994 0.440000
v 0.900000 2.829994 0.060000
v 0.300000 2.829994 2.289999
v 0.300000 2.829994 0.090000
v 0.300000 2.829994 2.260001
v 0.300000 2.829994 0.060000
v 0.900000 2.829994 2.260001
v 0.900000 2.829994 2.289999
v 0.300000 4.829995 0.450000
v 0.900000 4.829995 0.450000
v 0.300000 4.829995 2.300000
v 0.900000 4.829995 2.289999
v 0.900000 4.829995 0.410000
v 0.300000 4.829995 0.410000
v 0.900000 4.829995 2.250001
v 0.300000 4.829995 2.250001
v 0.300000 4.829995 0.090000
v 0.900000 4.829995 2.300000
v 0.300000 4.829995 2.260000
v 0.900000 4.829995 0.100000
v 0.300000 4.829995 0.100000
v 0.300000 4.829995 0.060000
v 0.900000 4.829995 0.060000
v 0.900000 4.829995 2.260000
v 0.900000 4.829995 0.440000
v 0.300000 4.829995 0.400000
v 0.300000 4.829995 2.289999
v 0.300000 4.829995 0.440000
v 0.900000 4.829995 0.050000
v 0.300000 4.829995 0.050000
v 0.900000 4.829995 0.400000
v 0.900000 4.829995 0.090000
v 0.900000 4.819997 2.289999
v 0.900000 4.819997 0.410000
v 0.300000 4.819997 0.410000
v 0.300000 4.819997 0.090000
v 0.300000 4.819997 2.260000
v 0.300000 4.819997 0.060000
v 0.900000 4.819997 0.060000
v 0.900000 4.819997 2.260000
v 0.900000 4.819997 0.440000
v 0.300000 4.819997 2.289999
v 0.300000 4.819997 0.440000
v 0.900000 4.819997 0.090000
v 0.100000 0.599997 2.500000
v 0.100000 2.599997 2.500000
v 0.100000 0.599997 -0.050000
v 0.100000 2.599997 -0.050000
v 0.100000 0.599997 0.500000
v 0.100000 2.599997 0.500000
v 0.100000 0.599997 2.200000
v 0.100000 2.599997 2.200000
v 0.300000 2.799996 -0.050000
v 0.300000 4.849995 -0.050000
v 0.300000 2.799996 2.400000
v 0.300000 2.799996 0.500000
v 0.300000 4.849995 2.400000
v 0.300000 2.799996 2.200000
v 0.300000 4.849995 2.250000
v 0.900000 2.799996 -0.050000
v 0.900000 4.849995 -0.050000
v 0.900000 2.799996 2.400000
v 0.900000 2.799996 0.500000
v 0.900000 4.849995 2.400000
v 0.900000 2.799996 2.200000
v 0.900000 4.849995 2.250000
v 1.100000 3.264996 2.400000
v 1.100000 3.264996 -0.050000
v 0.600000 4.849995 0.450000
v 1.100000 3.264996 2.250000
v 1.100000 2.949996 2.250000
v 1.100000 2.949996 0.450000
v 1.100000 2.949996 -0.050000
v 1.100000 2.949996 2.400000
v 1.100000 4.384996 2.400000
v 1.100000 4.384996 -0.050000
v 1.100000 4.384996 2.250000
v 1.100000 4.699995 -0.050000
v 1.100000 4.699995 2.250000
v 1.100000 4.699995 2.400000
v 0.900000 2.774997 0.500000
v 0.300000 2.774997 0.500000
v 0.300000 2.774997 2.200000
v 0.900000 2.774997 2.200000
v 0.125000 0.599997 0.500000
v 0.125000 2.599997 2.200000
v 0.125000 0.599997 2.200000
v 0.125000 2.599997 0.500000
v 0.100000 0.599997 0.050000
v 0.100000 2.599997 0.050000
v 0.100000 0.599997 0.100000
v 0.600000 4.849995 0.100000
v 0.600000 4.849995 0.400000
v 0.600000 4.849995 -0.050000
v 0.100000 0.599997 0.450000
v 0.100000 2.599997 0.450000
v 0.600000 4.849995 2.250000
v 0.100000 2.599997 2.250000
v 0.600000 4.849995 2.400000
v 0.100000 2.599997 2.300000
v 0.900000 2.799996 2.300000
v 0.300000 2.799996 2.300000
v 0.900000 2.799996 2.250000
v 0.300000 2.799996 2.250000
v 0.600000 4.819997 0.410000
v 0.300000 2.799996 0.050000
v 0.600000 4.819997 0.440000
v 0.600000 4.819997 0.060000
v 0.900000 2.799996 0.400000
v 0.300000 2.799996 0.400000
v 0.600000 4.819997 0.090000
v 0.600000 4.819997 2.289999
v 0.600000 4.819997 2.260000
v 1.100000 3.264996 0.400000
v 1.100000 2.949996 0.050000
v 0.600000 4.829995 0.410000
v 1.100000 2.949996 0.100000
v 1.100000 3.264996 0.100000
v 0.600000 4.829995 0.440000
v 0.600000 4.829995 0.060000
v 0.600000 4.829995 0.100000
v 0.600000 4.829995 0.090000
v 0.600000 4.829995 2.289999
v 1.100000 4.699995 0.450000
v 0.600000 4.829995 2.260000
v 1.100000 4.699995 0.400000
v 0.600000 4.829995 0.050000
v 1.100000 4.699995 0.050000
v 0.600000 4.829995 2.300000
v 1.100000 4.699995 0.100000
v 0.600000 4.829995 2.250001
v 0.600000 4.829995 0.400000
v 0.600000 4.829995 0.450000
v 0.300000 4.849995 0.450000
v 0.900000 4.849995 0.400000
v 0.300000 4.849995 0.400000
v 0.600000 4.849995 2.300000
v 0.300000 4.849995 0.050000
v 0.900000 4.849995 0.100000
v 0.300000 4.849995 0.100000
v 1.150000 4.274997 0.010000
v 1.150000 4.274997 2.109999
v 1.150000 3.374995 0.009996
v 1.150000 3.374995 2.109999
v 1.150000 4.264997 0.020002
v 1.150000 3.384995 0.020000
v 1.150000 3.384995 2.099999
v 1.100000 3.384995 2.099999
v 1.099999 4.264997 2.099999
v 1.150000 4.264997 2.099999
v 1.099999 4.284995 -0.050000
v 1.100000 3.364995 -0.050000
v 1.100000 3.384995 0.020000
v 1.099999 4.264997 0.020000
v 1.100000 3.364995 2.120001
v 1.099999 4.284995 2.120001
v 0.125000 0.599997 2.500000
v 0.125000 2.599997 2.500000
v 1.050000 3.344995 2.400000
v 0.050000 2.649997 -0.050000
v 0.125000 0.599997 -0.050000
v 0.900000 2.849997 -0.050000
v 0.050000 0.549996 2.500000
v 0.125000 2.599997 -0.050000
v 1.050000 4.284996 -0.050000
v 0.100000 4.799994 -0.050000
v 1.050000 4.304996 2.400000
v 0.050000 0.549996 -0.050000
v 0.300000 2.774997 -0.050000
v 0.300000 4.849995 -0.050000
v 0.300000 2.774997 2.500000
v 0.300000 4.849995 2.500000
v 0.900000 4.849995 -0.050000
v 0.900000 2.774997 2.400000
v 0.900000 2.774997 -0.050000
v 0.900000 4.849995 2.400000
v 1.050000 3.364996 2.119999
v 1.050000 4.284996 2.119999
v 1.100000 4.284996 -0.050000
v 1.100000 3.364996 -0.050000
v 1.100000 4.284996 2.119999
v 1.100000 3.364996 2.119999
v 0.050000 0.599997 2.500000
v 0.050000 2.799996 2.500000
v 0.050000 4.849995 2.500000
v 0.050000 0.599997 -0.050000
v 0.050000 2.599997 -0.050000
v 0.050000 2.799996 -0.050000
v 0.050000 4.849995 -0.050000
v 0.050000 2.599997 2.500000
v 0.100000 2.849997 -0.050000
v 0.100000 2.849997 2.500000
v 0.300000 2.849997 -0.050000
v 0.300000 2.849997 2.500000
v 0.050000 2.849997 -0.050000
v 0.050000 2.849997 2.500000
v 0.100000 4.799994 2.500000
v 0.300000 4.799994 -0.050000
v 0.300000 4.799994 2.500000
v 0.900000 4.799994 -0.050000
v 0.900000 4.799994 2.400000
v 1.030000 3.344995 2.400000
v 1.030000 4.304996 2.400000
v 0.050000 4.799994 -0.050000
v 0.050000 4.799994 2.500000
v 0.900000 2.849997 2.400000
v 1.100000 3.264996 2.400000
v 1.100000 3.264996 -0.050000
v 1.100000 2.949996 -0.050000
v 1.100000 2.949996 2.400000
v 1.050000 2.949996 2.400000
v 1.050000 2.949996 -0.050000
v 1.100000 4.384996 2.400000
v 1.100000 4.384996 -0.050000
v 1.100000 4.699995 -0.050000
v 1.050000 4.699995 2.400000
v 1.100000 4.699995 2.400000
v 1.050000 4.699995 -0.050000
v 1.050000 3.264996 2.400000
v 1.050000 3.264996 -0.050000
v 1.050000 4.384996 2.400000
v 1.050000 4.384996 -0.050000
v 1.050000 3.364996 -0.050000
v 0.050000 2.649997 2.500000
v 0.030000 2.649997 -0.050000
v 0.030000 0.549996 2.500000
v 0.030000 0.549996 -0.050000
v 0.030000 0.399996 2.500000
v 0.030000 4.849995 2.500000
v 0.030000 4.999996 2.500000
v 0.030000 4.999996 -0.050000
v 0.030000 2.799996 -0.050000
v 0.030000 4.849995 -0.050000
v 0.030000 0.399996 -0.050000
v 0.030000 2.799996 2.500000
v 0.030000 2.649997 2.500000
v 0.250000 2.849997 -0.050000
v 0.250000 2.849997 2.500000
v 0.250000 4.799994 -0.050000
v 0.250000 4.799994 2.500000
v 0.100000 4.779995 2.500000
v 0.100000 4.779995 -0.050000
v 0.100000 2.869996 2.500000
v 0.100000 2.869996 -0.050000
v 0.250000 4.779995 2.500000
v 0.250000 2.869996 -0.050000
v 0.250000 2.869996 2.500000
v 0.250000 4.779995 -0.050000
v 0.950000 4.799994 -0.050000
v 0.950000 4.799994 2.400000
v 0.950000 2.849997 2.400000
v 0.950000 2.849997 -0.050000
v 1.050000 4.719995 -0.050000
v 1.050000 4.719995 2.400000
v 1.050000 2.929995 2.400000
v 1.050000 2.929995 -0.050000
v 1.030000 4.779995 2.400000
v 1.030000 4.779995 -0.050000
v 1.030000 2.869996 -0.050000
v 1.050000 4.304996 -0.050000
v 1.030000 4.719995 -0.050000
v 1.030000 2.869996 2.400000
v 1.050000 4.364996 2.400000
v 1.050000 3.344995 -0.050000
v 1.050000 4.364996 -0.050000
v 1.030000 2.929995 2.400000
v 1.030000 2.929995 -0.050000
v 1.030000 4.719995 2.400000
v 0.950000 4.779995 2.400000
v 0.950000 4.779995 -0.050000
v 1.030000 4.364996 -0.050000
v 0.950000 2.869995 -0.050000
v 0.950000 2.869995 2.400000
v 1.030000 4.364996 2.400000
v 1.050000 3.284996 2.400000
v 1.030000 4.304996 -0.050000
v 1.050000 3.284996 -0.050000
v 1.030000 3.284996 2.400000
v 1.030000 3.284996 -0.050000
v 1.030000 3.344995 -0.050000
vt 0.699935 0.751280
vt 0.699935 0.741477
vt 0.900907 0.741477
vt 0.900907 0.751280
vt 0.699935 0.648343
vt 0.900907 0.648343
vt 0.062716 0.500254
vt 0.065098 0.496785
vt 0.260412 0.496766
vt 0.263862 0.500254
vt 0.213187 0.487793
vt 0.210592 0.490388
vt 0.137938 0.490388
vt 0.135343 0.487793
vt 0.262940 0.487194
vt 0.260558 0.490663
vt 0.065248 0.490682
vt 0.061798 0.487194
vt 0.062716 0.500236
vt 0.260409 0.496747
vt 0.263859 0.500236
vt 0.262908 0.487081
vt 0.260625 0.490987
vt 0.040695 0.491016
vt 0.036817 0.487081
vt 0.262794 0.487414
vt 0.260412 0.490883
vt 0.065098 0.490902
vt 0.061648 0.487414
vt 0.135343 0.499470
vt 0.137938 0.496876
vt 0.210592 0.496875
vt 0.213187 0.499470
vt 0.062866 0.500035
vt 0.065249 0.496565
vt 0.260558 0.496546
vt 0.264008 0.500035
vt 0.263207 0.487179
vt 0.260923 0.491085
vt 0.040992 0.491114
vt 0.037115 0.487179
vt 0.040993 0.496725
vt 0.260924 0.496696
vt 0.262942 0.487329
vt 0.260559 0.490799
vt 0.065247 0.490819
vt 0.061797 0.487330
vt 0.038709 0.500631
vt 0.264802 0.500631
vt 0.038412 0.500533
vt 0.040696 0.496627
vt 0.260625 0.496598
vt 0.264503 0.500533
vt 0.065248 0.496702
vt 0.260560 0.496682
vt 0.062865 0.500171
vt 0.264010 0.500171
vt 0.213240 0.487887
vt 0.210646 0.490482
vt 0.137990 0.490482
vt 0.135396 0.487887
vt 0.135396 0.499563
vt 0.137990 0.496969
vt 0.210646 0.496969
vt 0.213240 0.499563
vt 0.699864 0.675615
vt 0.699885 0.672724
vt 0.865546 0.672722
vt 0.865525 0.675613
vt 0.678487 0.743565
vt 0.678488 0.741566
vt 0.618538 0.741563
vt 0.618538 0.743561
vt 0.699843 0.703356
vt 0.865505 0.703353
vt 0.865528 0.706244
vt 0.699866 0.706247
vt 0.699862 0.669832
vt 0.699898 0.666942
vt 0.865558 0.666940
vt 0.865523 0.669830
vt 0.699801 0.714920
vt 0.865463 0.714918
vt 0.865486 0.717809
vt 0.699825 0.717811
vt 0.699902 0.658267
vt 0.865563 0.658267
vt 0.865587 0.661158
vt 0.699926 0.661159
vt 0.618528 0.497535
vt 0.618528 0.499540
vt 0.648587 0.499542
vt 0.648587 0.497538
vt 0.699830 0.709138
vt 0.865492 0.709135
vt 0.865499 0.712027
vt 0.699837 0.712029
vt 0.699891 0.664050
vt 0.865551 0.664048
vt 0.867034 0.679657
vt 0.866998 0.682575
vt 0.699764 0.682575
vt 0.699800 0.679657
vt 0.867114 0.670902
vt 0.867078 0.673820
vt 0.699844 0.673820
vt 0.699881 0.670902
vt 0.867151 0.667984
vt 0.699917 0.667984
vt 0.867071 0.676739
vt 0.699837 0.676739
vt 0.618513 0.691900
vt 0.650073 0.691899
vt 0.650073 0.690898
vt 0.618513 0.690897
vt 0.650080 0.500533
vt 0.618528 0.500534
vt 0.618528 0.501535
vt 0.650080 0.501535
vt 0.618515 0.697913
vt 0.650073 0.697909
vt 0.650073 0.696908
vt 0.618514 0.696911
vt 0.618522 0.732980
vt 0.650080 0.732974
vt 0.650079 0.731972
vt 0.618521 0.731978
vt 0.618523 0.738992
vt 0.650081 0.738985
vt 0.650081 0.737983
vt 0.618523 0.737990
vt 0.618527 0.506543
vt 0.650082 0.506544
vt 0.650081 0.505542
vt 0.618527 0.505541
vt 0.650082 0.499536
vt 0.618522 0.733982
vt 0.650080 0.733976
vt 0.650080 0.497528
vt 0.618513 0.695908
vt 0.650073 0.695906
vt 0.650073 0.692901
vt 0.618513 0.692902
vt 0.618522 0.736988
vt 0.650081 0.736981
vt 0.618524 0.504543
vt 0.650083 0.504545
vt 0.808552 0.666059
vt 0.808552 0.665036
vt 0.867178 0.665031
vt 0.867178 0.666054
vt 0.618538 0.735426
vt 0.678487 0.735429
vt 0.678488 0.734383
vt 0.618538 0.734380
vt 0.678488 0.740520
vt 0.618539 0.740516
vt 0.618540 0.694271
vt 0.678489 0.694274
vt 0.678490 0.693228
vt 0.618541 0.693225
vt 0.618540 0.700408
vt 0.678490 0.700411
vt 0.678491 0.699364
vt 0.618541 0.699361
vt 0.867178 0.667077
vt 0.808552 0.667082
vt 0.808552 0.660057
vt 0.867178 0.660053
vt 0.867179 0.661076
vt 0.808553 0.661081
vt 0.678488 0.739473
vt 0.618538 0.739470
vt 0.678490 0.702409
vt 0.618540 0.702406
vt 0.678488 0.736476
vt 0.618538 0.736472
vt 0.618540 0.698315
vt 0.678490 0.698318
vt 0.678490 0.695320
vt 0.618540 0.695317
vt 0.808552 0.662104
vt 0.867178 0.662100
vt 0.618529 0.506553
vt 0.648587 0.506556
vt 0.648587 0.505554
vt 0.618529 0.505551
vt 0.648587 0.500544
vt 0.648569 0.732981
vt 0.648569 0.731980
vt 0.648563 0.691915
vt 0.648564 0.690914
vt 0.648570 0.738990
vt 0.648570 0.737989
vt 0.618564 0.696893
vt 0.618564 0.695892
vt 0.648621 0.695897
vt 0.648621 0.696900
vt 0.648562 0.697923
vt 0.648587 0.504552
vt 0.648587 0.501546
vt 0.648570 0.736987
vt 0.648569 0.733983
vt 0.648563 0.692916
vt 0.648596 0.504539
vt 0.648596 0.505541
vt 0.699803 0.720703
vt 0.865465 0.720700
vt 0.865465 0.728983
vt 0.699803 0.728985
vt 0.808552 0.669037
vt 0.867178 0.669032
vt 0.867179 0.673917
vt 0.808553 0.673922
vt 0.618538 0.748557
vt 0.618538 0.751055
vt 0.678487 0.751058
vt 0.678487 0.748561
vt 0.867179 0.676360
vt 0.808553 0.676365
vt 0.866975 0.689675
vt 0.866961 0.692593
vt 0.699727 0.692593
vt 0.699741 0.689675
vt 0.699923 0.651235
vt 0.865597 0.648343
vt 0.865583 0.651234
vt 0.865584 0.655375
vt 0.699924 0.655376
vt 0.808551 0.648332
vt 0.867177 0.648328
vt 0.867178 0.658099
vt 0.808552 0.658103
vt 0.648574 0.751009
vt 0.648571 0.740993
vt 0.618524 0.741003
vt 0.618528 0.751019
vt 0.648565 0.688910
vt 0.648587 0.508560
vt 0.618529 0.508557
vt 0.618507 0.688907
vt 0.618535 0.487513
vt 0.648592 0.487506
vt 0.648563 0.699926
vt 0.618511 0.699932
vt 0.618565 0.690886
vt 0.618565 0.688883
vt 0.648609 0.729968
vt 0.618549 0.729956
vt 0.618561 0.699897
vt 0.865526 0.700462
vt 0.699864 0.700464
vt 0.650083 0.508552
vt 0.618538 0.732381
vt 0.678488 0.732384
vt 0.650074 0.699912
vt 0.650073 0.729959
vt 0.699742 0.685494
vt 0.866976 0.685494
vt 0.867172 0.665065
vt 0.699939 0.665065
vt 0.650073 0.740987
vt 0.650073 0.688866
vt 0.618527 0.508546
vt 0.650082 0.508547
vt 0.618541 0.691226
vt 0.678491 0.691229
vt 0.648597 0.506543
vt 0.648597 0.508546
vt 0.618563 0.697894
vt 0.650083 0.487514
vt 0.618565 0.692887
vt 0.618565 0.691887
vt 0.678491 0.681238
vt 0.618541 0.681235
vt 0.650084 0.751006
vt 0.145774 0.484186
vt 0.260221 0.484238
vt 0.258966 0.486200
vt 0.147747 0.486162
vt 0.148222 0.493413
vt 0.148224 0.487176
vt 0.258006 0.487213
vt 0.258004 0.493452
vt 0.259953 0.495402
vt 0.146983 0.495351
vt 0.261488 0.501367
vt 0.145215 0.501328
vt 0.147745 0.492481
vt 0.258964 0.492520
vt 0.043780 0.493904
vt 0.043780 0.488728
vt 0.259077 0.488698
vt 0.259077 0.493873
vt 0.044389 0.493304
vt 0.044389 0.488149
vt 0.258858 0.488148
vt 0.258858 0.493303
vt 0.039956 0.484904
vt 0.260081 0.484922
vt 0.030789 0.484256
vt 0.260898 0.484368
vt 0.145730 0.484680
vt 0.260502 0.484719
vt 0.262872 0.497728
vt 0.036447 0.497728
vt 0.262618 0.497161
vt 0.043311 0.497114
vt 0.758623 0.714671
vt 0.848816 0.714671
vt 0.848816 0.719573
vt 0.758624 0.719573
vt 0.659134 0.749282
vt 0.659134 0.524742
vt 0.654552 0.524742
vt 0.654551 0.749282
vt 0.756663 0.747023
vt 0.850776 0.747023
vt 0.631446 0.557854
vt 0.631446 0.751014
vt 0.635897 0.751014
vt 0.635897 0.557854
vt 0.641214 0.749291
vt 0.646713 0.749291
vt 0.646716 0.524751
vt 0.641217 0.524751
vt 0.630694 0.751054
vt 0.634978 0.751013
vt 0.634979 0.505523
vt 0.630695 0.505564
vt 0.625570 0.750780
vt 0.629510 0.750743
vt 0.629510 0.524975
vt 0.625570 0.525012
vt 0.629994 0.543610
vt 0.629994 0.750941
vt 0.634225 0.750941
vt 0.634225 0.543610
vt 0.637843 0.543577
vt 0.637844 0.750908
vt 0.641462 0.750933
vt 0.641462 0.543601
vt 0.620798 0.749327
vt 0.625381 0.749327
vt 0.625385 0.524787
vt 0.620802 0.524787
vt 0.650223 0.751088
vt 0.650224 0.543752
vt 0.645993 0.543753
vt 0.645992 0.751088
vt 0.662251 0.750659
vt 0.666438 0.750619
vt 0.666437 0.510736
vt 0.662250 0.510776
vt 0.648656 0.510816
vt 0.634545 0.510816
vt 0.634546 0.750699
vt 0.648657 0.750700
vt 0.652842 0.510776
vt 0.652843 0.750659
vt 0.618600 0.750740
vt 0.625656 0.750740
vt 0.625656 0.510856
vt 0.618600 0.510857
vt 0.630360 0.750740
vt 0.630359 0.510856
vt 0.680549 0.750619
vt 0.680547 0.510735
vt 0.630060 0.543737
vt 0.630059 0.751072
vt 0.633678 0.751096
vt 0.633678 0.543761
vt 0.654900 0.750733
vt 0.654900 0.524965
vt 0.650292 0.524965
vt 0.650291 0.750733
vt 0.657547 0.750659
vt 0.657546 0.510776
vt 0.625031 0.750988
vt 0.628297 0.751009
vt 0.628297 0.563895
vt 0.624489 0.512230
vt 0.650632 0.749318
vt 0.650634 0.524778
vt 0.638755 0.751097
vt 0.638756 0.543761
vt 0.668959 0.510783
vt 0.664767 0.510824
vt 0.664767 0.751025
vt 0.668959 0.750985
vt 0.629963 0.749327
vt 0.629967 0.524787
vt 0.633882 0.749291
vt 0.633885 0.524751
vt 0.646446 0.510864
vt 0.641736 0.510864
vt 0.641735 0.751065
vt 0.646446 0.751065
vt 0.642374 0.751121
vt 0.642375 0.543786
vt 0.625880 0.505564
vt 0.625881 0.751054
vt 0.646540 0.750933
vt 0.646539 0.543601
vt 0.633450 0.750770
vt 0.633451 0.525002
vt 0.684734 0.510695
vt 0.684736 0.750579
vt 0.689439 0.750579
vt 0.689438 0.510695
vt 0.678379 0.510784
vt 0.673669 0.510783
vt 0.673668 0.750985
vt 0.678379 0.750985
vt 0.632608 0.751009
vt 0.632609 0.563895
vt 0.696493 0.510695
vt 0.696495 0.750579
vt 0.650159 0.750957
vt 0.650158 0.543626
vt 0.639268 0.750987
vt 0.639268 0.532903
vt 0.637025 0.751065
vt 0.637026 0.510864
vt 0.650637 0.751025
vt 0.650638 0.510824
vt 0.632834 0.510904
vt 0.632834 0.751106
vt 0.620963 0.525012
vt 0.620963 0.750780
vt 0.646351 0.750770
vt 0.646352 0.525002
vt 0.638980 0.525002
vt 0.638979 0.750770
vt 0.618704 0.510905
vt 0.618704 0.751106
vt 0.661810 0.524965
vt 0.661811 0.750733
vt 0.618660 0.505564
vt 0.649419 0.751013
vt 0.649419 0.505523
usemtl Exterior_Mat
s off
f 652/972 655/973 656/974 653/975
f 655/973 654/976 651/977 656/974
f 658/978 682/979 683/980 660/981
f 662/982 680/983 685/984 661/985
f 659/986 688/987 686/988 657/989
f 668/990 675/979 676/991 665/992
f 669/993 674/994 681/995 672/996
f 663/997 677/998 680/999 662/1000
f 657/1001 686/1002 682/1003 658/1004
f 661/1005 685/1006 687/1007 664/1008
f 665/1009 676/1010 679/1011 666/1012
f 678/1013 679/1011 676/1010 673/1014
f 680/983 682/1003 686/1002 685/984
f 673/998 676/991 675/979 674/999
f 671/997 673/998 674/999 669/1000
f 666/1015 679/1016 684/1017 667/1018
f 670/1019 678/1013 673/1014 671/1020
f 667/1021 684/1022 675/1023 668/1024
f 681/1025 684/1017 679/1016 678/1026
f 672/1027 681/1025 678/1026 670/1028
f 674/994 675/1023 684/1022 681/995
f 660/1029 683/1030 688/1031 659/1032
f 664/1033 687/1034 677/1035 663/1036
f 685/1006 686/988 688/987 687/1007
f 687/1034 688/1031 683/1030 677/1035
f 677/998 683/980 682/979 680/999
f 694/1037 717/1038 719/1039 695/1040
f 690/1041 823/1042 824/1043 691/1044
f 713/1045 712/1046 708/1047 718/1048
f 726/1049 736/1050 735/1051 725/1052
f 728/1053 727/1054 716/1055 707/1056
f 709/1057 723/1058 711/1059 722/1060
f 987/1061 979/1062 868/1063 710/1064
f 726/1049 725/1052 719/1039 717/1038
f 733/1065 731/1066 737/1067 738/1068
f 734/1069 732/1070 735/1051 736/1050
f 728/1053 738/1068 737/1067 727/1054
f 711/1059 732/1070 734/1069 722/1060
f 708/1047 731/1066 733/1065 718/1048
f 744/1071 745/1072 746/1073 743/1074
f 742/1075 748/1076 747/1077 741/1078
f 739/1079 742/1075 741/1078 740/1080
f 748/1076 750/1081 749/1082 747/1077
f 743/1074 749/1082 750/1081 744/1071
f 764/1083 757/1084 753/1085 754/1086
f 781/1087 793/1088 819/1089 813/1090
f 766/1091 767/1092 756/1093 765/1094
f 782/1095 772/1096 775/1097 761/1098
f 773/1099 760/1100 774/1101 771/1102
f 768/1103 769/1104 759/1105 785/1106
f 789/1088 780/1087 763/1107 788/1062
f 793/1088 781/1087 762/1107 792/1062
f 776/1103 770/1104 758/1105 778/1106
f 772/1096 782/1095 814/1108 807/1109
f 779/1096 784/1095 816/1108 811/1109
f 784/1095 779/1096 795/1097 794/1098
f 797/1083 755/1084 751/1085 752/1086
f 791/1099 790/1100 798/1101 783/1102
f 786/1091 787/1092 796/1093 777/1094
f 698/1110 721/1061 792/1062 762/1107
f 699/1110 715/1061 788/1062 763/1107
f 805/1111 800/1112 801/1113 804/1114
f 806/1115 808/1116 807/1109 814/1108
f 810/1117 802/1118 812/1090 818/1089
f 817/1117 803/1118 813/1090 819/1089
f 815/1115 822/1116 811/1109 816/1108
f 809/1111 820/1112 799/1113 821/1114
f 777/1094 796/1093 820/1112 809/1111
f 757/1084 764/1083 804/1114 801/1113
f 785/1106 759/1105 803/1118 817/1117
f 771/1102 774/1101 808/1116 806/1115
f 765/1094 756/1093 800/1112 805/1111
f 755/1084 797/1083 821/1114 799/1113
f 780/1087 789/1088 818/1089 812/1090
f 783/1102 798/1101 822/1116 815/1115
f 778/1106 758/1105 802/1118 810/1117
f 839/1119 855/1120 857/1121 845/1122
f 829/1123 828/1124 834/1125 836/1126
f 824/1043 823/1042 826/1127 830/1128
f 840/1129 832/1130 831/1131 833/1132
f 841/1133 825/1134 827/1135 838/1136
f 839/1119 845/1122 843/1137 842/1138
f 835/1139 844/1140 846/1141 837/1142
f 826/1127 847/1143 851/1144 830/1128
f 693/1145 825/1134 841/1133 705/1146
f 851/1144 847/1143 849/1147 850/1148
f 854/1149 848/1150 852/1151 856/1152
f 853/1153 858/1154 857/1121 855/1120
f 846/1141 858/1154 853/1153 837/1142
f 827/1135 848/1150 854/1149 838/1136
f 829/1123 850/1148 849/1147 828/1124
f 840/1129 856/1152 852/1151 832/1130
f 981/1155 865/1156 874/1157 975/1158
f 973/1088 862/1159 868/1063 979/1062
f 972/1095 882/1160 870/1161 971/1098
f 969/1083 875/1162 860/1163 983/1086
f 977/1099 879/1164 873/1165 970/1102
f 966/1166 955/1167 885/1168 864/1169
f 982/1091 881/1170 863/1169 966/1094
f 963/1117 890/1171 883/1172 962/1089
f 958/1115 889/1173 894/1174 961/1108
f 955/1111 884/1168 891/1175 957/1114
f 970/1102 958/1115 888/1173 872/1165
f 973/1088 962/1089 883/1172 862/1159
f 969/1083 957/1114 891/1175 875/1162
f 972/1095 961/1108 894/1174 882/1160
f 975/1106 963/1117 887/1176 869/1177
f 939/1178 940/1179 898/1180 897/1181
f 954/1182 953/1183 915/1184 908/1185
f 906/1186 932/1187 931/1188 913/1189
f 915/1184 934/1190 933/1191 908/1185
f 902/1192 936/1193 937/1194 901/1195
f 899/1196 935/976 938/1197 900/1198
f 899/1196 900/1198 946/1199 945/1200
f 905/1201 912/1202 951/1203 952/1204
f 867/1160 886/1174 961/1108 972/1095
f 911/1205 724/1206 730/1207 944/1208
f 689/1209 916/1210 947/1211 919/1212
f 700/1064 987/1061 949/1213 907/1214
f 985/1215 881/1170 982/1091 943/1216
f 984/1209 859/1163 983/1217 919/1218
f 724/1206 879/1164 977/1099 730/1207
f 916/1210 865/1156 981/1155 947/1211
f 990/1219 871/1161 971/1098 942/1220
f 942/1220 943/1221 986/1215 990/1219
f 989/1219 985/1215 943/1216 942/1220
f 874/1157 890/1171 963/1117 975/1158
f 704/1222 712/1046 713/1045 941/1223
f 939/1178 707/1056 716/1055 940/1179
f 920/1211 921/1224 770/1104 776/1103
f 960/1225 836/1126 834/1125 959/1226
f 964/1216 702/1227 767/1092 766/1091
f 729/1228 980/1220 794/1098 795/1097
f 706/1229 746/1073 745/1072 948/1230
f 946/1199 723/1058 709/1057 945/1200
f 976/1216 714/1227 787/1092 786/1091
f 967/1228 968/1220 761/1098 775/1097
f 950/1231 739/1079 740/1080 701/1232
f 978/1207 720/1233 790/1100 791/1099
f 692/1234 974/1212 752/1086 751/1085
f 929/1235 927/1236 769/1104 768/1103
f 922/1234 696/1212 754/1086 753/1085
f 703/1207 965/1233 760/1100 773/1099
f 951/1203 844/1140 835/1139 952/1204
f 954/1182 842/1138 843/1137 953/1183
f 956/1237 833/1132 831/1131 697/1238
f 942/1220 971/1098 870/1161 989/1219
f 947/1211 981/1103 866/1239 909/1240
f 730/1207 977/1099 880/1164 988/1206
f 919/1212 983/1086 860/1163 689/1209
f 943/1221 982/1241 876/1170 986/1215
f 715/1061 699/1110 924/1242 917/1213
f 878/1162 893/1175 957/1243 969/1244
f 956/1237 697/1238 910/1245 903/1246
f 696/1212 922/1234 921/1224 920/1211
f 987/1061 710/1064 914/1214 949/1213
f 721/1061 698/1110 925/1242 930/1213
f 948/1230 902/1192 901/1195 706/1229
f 974/1212 692/1234 927/1236 929/1235
f 919/1218 947/1211 909/1240 984/1209
f 877/1159 892/1172 962/1089 973/1088
f 694/1037 695/1040 704/1222 941/1223
f 873/1165 889/1173 958/1115 970/1102
f 885/1168 955/1167 957/1243 893/1175
f 896/1202 950/1231 701/1232 895/976
f 888/1173 958/1115 961/1108 886/1174
f 960/1225 959/1226 693/1145 705/1146
f 887/1176 963/1117 962/1089 892/1172
f 906/1186 913/1189 690/1041 691/1044
f 968/1220 967/1228 702/1227 964/1216
f 918/1208 923/1247 965/1233 703/1207
f 876/1170 982/1241 966/1166 864/1169
f 863/1169 884/1168 955/1111 966/1094
f 880/1164 977/1099 970/1102 872/1165
f 878/1162 969/1244 983/1217 859/1163
f 980/1220 729/1228 714/1227 976/1216
f 928/1208 926/1247 720/1233 978/1207
f 867/1160 972/1095 971/1098 871/1161
f 877/1159 973/1088 979/1062 861/1063
f 866/1239 981/1103 975/1106 869/1177
f 944/1208 730/1207 988/1206 904/1205
f 700/1064 861/1063 979/1062 987/1061
f 993/1248 991/1249 995/1250 996/1251
f 997/1252 998/1253 999/1254 1000/1255
f 997/1252 1000/1255 992/1256 994/1257
f 1001/1258 1002/1259 1003/1260 1004/1261
f 1004/1262 995/1263 1000/1264 999/1265
f 996/1266 1003/1267 998/1268 997/1269
f 1004/1261 1003/1260 996/1251 995/1250
f 991/1270 992/1271 1000/1264 995/1263
f 1002/1272 1005/1273 998/1268 1003/1267
f 1005/1274 1006/1275 999/1254 998/1253
f 1006/1276 1001/1277 1004/1262 999/1265
f 996/1266 997/1269 994/1278 993/1279
f 1031/1280 1032/1281 1027/1282 1028/1283
f 1065/1284 1067/1285 1066/1286 1068/1287
f 1017/1288 1028/1283 1027/1282 1009/1289
f 1032/1290 1030/1291 1073/1292 1027/1293
f 1108/1294 1111/1295 1118/1296 1107/1297
f 1018/1298 1077/1299 1076/1300 1013/1301
f 1062/1302 1106/1303 1105/1304 1061/1305
f 1063/1306 1064/1307 1072/1308 1071/1309
f 1113/1310 1115/1311 1121/1312 1124/1313
f 1023/1314 1050/1315 1051/1316 1026/1317
f 1058/1318 1057/1319 1069/1320 1070/1321
f 1038/1322 1082/1323 1085/1324 1034/1325
f 1093/1326 1097/1327 1096/1328 1094/1329
f 1042/1330 1093/1326 1094/1329 1041/1331
f 1019/1332 1043/1333 1044/1334 1021/1335
f 1087/1336 1096/1328 1097/1327 1088/1337
f 1085/1324 1082/1323 1075/1338 1086/1339
f 1088/1337 1044/1334 1043/1333 1087/1336
f 1009/1340 1114/1341 1130/1342 1052/1343
f 1012/1344 1056/1345 1101/1346 1102/1347
f 1041/1331 1045/1348 1046/1349 1042/1330
f 1110/1350 1015/1351 1028/1352 1017/1353
f 1103/1354 1068/1287 1066/1286 1104/1355
f 1130/1342 1129/1356 1128/1357 1052/1343
f 1090/1358 1095/1359 1098/1360 1089/1361
f 1099/1362 1100/1363 1051/1316 1050/1315
f 1099/1362 1120/1364 1119/1365 1100/1363
f 1047/1366 1055/1367 1054/1368 1016/1369
f 1127/1370 1070/1321 1069/1320 1125/1371
f 1033/1372 1036/1373 1018/1298 1013/1301
f 1121/1312 1126/1374 1053/1375 1124/1313
f 1105/1304 1106/1303 1117/1376 1116/1377
f 1074/1378 1010/1379 1037/1380 1040/1381
f 1022/1382 1049/1383 1048/1384 1020/1385
f 1074/1378 1086/1339 1075/1338 1010/1379
f 1029/1386 1031/1387 1028/1352 1015/1351
f 1008/1388 1040/1381 1037/1380 1014/1389
f 1110/1390 1017/1391 1053/1375 1126/1374
f 1073/1292 1114/1392 1009/1393 1027/1293
f 1089/1361 1048/1384 1049/1383 1090/1358
f 1039/1394 1054/1368 1055/1367 1035/1395
f 1092/1396 1098/1360 1095/1359 1091/1397
f 1035/1395 1079/1398 1083/1399 1039/1394
f 1072/1308 1115/1311 1113/1310 1071/1309
f 1060/1400 1059/1401 1062/1302 1061/1305
f 1122/1402 1123/1403 1112/1404 1109/1405
f 1101/1346 1123/1403 1122/1402 1102/1347
f 1108/1294 1107/1297 1119/1365 1120/1364
f 1080/1406 1081/1407 1083/1399 1079/1398
f 1016/1369 1092/1396 1091/1397 1047/1366
f 1024/1408 1056/1345 1012/1344 1025/1409
f 1117/1376 1109/1405 1112/1404 1116/1377
f 1011/1407 1036/1373 1033/1372 1007/1410
f 1034/1325 1046/1349 1045/1348 1038/1322
f 1127/1370 1125/1371 1128/1357 1129/1356
f 1103/1354 1104/1355 1118/1296 1111/1295
f 1076/1300 1077/1299 1084/1411 1078/1412
o Interior_DoorFrames
v 1.200000 3.365000 0.000000
v 1.200000 4.285000 0.000000
v 1.200000 4.275001 0.009996
v 1.200000 3.375000 0.009996
v 1.150000 4.275002 0.010000
v 1.200000 4.275001 2.109999
v 1.150000 4.275002 2.109999
v 1.150000 3.375000 0.009996
v 1.150000 3.375000 2.109999
v 1.200000 3.375000 2.109999
v 1.200000 4.285000 2.120001
v 1.200000 3.365000 2.120001
v 8.350000 4.690001 0.010000
v 8.350000 4.690001 2.109999
v 8.349999 3.790000 0.009996
v 8.349999 3.790000 2.109999
v 8.350000 4.680001 0.020002
v 8.349999 3.800000 0.020000
v 8.349999 3.800000 2.099999
v 8.299999 3.800000 2.099999
v 8.299999 4.680001 2.099999
v 8.350000 4.680001 2.099999
v 8.299999 4.700000 0.000000
v 8.299999 3.780000 0.000000
v 8.299999 3.800000 0.020000
v 8.299999 4.680001 0.020000
v 8.299999 3.780000 2.120001
v 8.299999 4.700000 2.120001
v 6.299999 3.779999 0.000000
v 6.300001 4.699999 0.000000
v 6.300001 4.690001 0.009996
v 6.299999 3.789999 0.009996
v 6.250000 4.690001 0.010000
v 6.300001 4.690001 2.109999
v 6.250000 4.690001 2.109999
v 6.250000 3.789999 0.009996
v 6.250000 3.789999 2.109999
v 6.299999 3.789999 2.109999
v 6.250000 4.680000 0.020002
v 6.250000 3.799999 0.020000
v 6.250000 3.799999 2.099999
v 6.199998 3.799999 2.099999
v 6.199998 4.680000 2.099999
v 6.250000 4.680000 2.099999
v 6.199998 4.699999 0.000000
v 6.199998 3.779999 0.000000
v 6.199998 3.799999 0.020000
v 6.199998 4.680000 0.020000
v 6.199998 3.779999 2.120001
v 6.300001 4.699999 2.120001
v 6.199998 4.699999 2.120001
v 6.299999 3.779999 2.120001
vt 0.965294 0.529903
vt 0.965293 0.291491
vt 0.969383 0.294043
vt 0.969409 0.525785
vt 0.951886 0.285243
vt 0.963047 0.285239
vt 0.963152 0.753988
vt 0.951992 0.753991
vt 0.979957 0.279192
vt 0.991148 0.279189
vt 0.991252 0.749224
vt 0.980062 0.749226
vt 0.984136 0.525675
vt 0.971271 0.525676
vt 0.971245 0.294110
vt 0.984109 0.294108
vt 0.982258 0.294042
vt 0.982284 0.525783
vt 0.971477 0.277023
vt 0.971477 0.756321
vt 0.988249 0.290024
vt 0.988249 0.528289
vt 0.971714 0.757575
vt 0.971714 0.277023
vt 0.965300 0.527743
vt 0.965407 0.291319
vt 0.969462 0.293911
vt 0.969382 0.523666
vt 0.983867 0.525488
vt 0.970813 0.525488
vt 0.970813 0.295737
vt 0.983868 0.295737
vt 0.987948 0.291657
vt 0.987923 0.528080
vt 0.987739 0.288695
vt 0.987657 0.528894
vt 0.982436 0.523670
vt 0.982516 0.293915
vt 0.952457 0.285153
vt 0.963305 0.285152
vt 0.963366 0.736402
vt 0.952519 0.736404
vt 0.952852 0.284906
vt 0.963665 0.284904
vt 0.963729 0.734762
vt 0.952915 0.734764
vt 0.971319 0.277137
vt 0.971280 0.738507
vt 0.971719 0.739169
vt 0.965591 0.530710
vt 0.965591 0.290515
vt 0.944505 0.744419
vt 0.944505 0.280864
vt 0.944824 0.742651
vt 0.944862 0.282644
vt 0.948709 0.531920
vt 0.948709 0.290807
vt 0.952845 0.293389
vt 0.952871 0.527755
vt 0.982712 0.276952
vt 0.982590 0.741459
vt 0.971530 0.741456
vt 0.953029 0.283027
vt 0.964082 0.283025
vt 0.964186 0.747262
vt 0.953133 0.747264
vt 0.984242 0.526653
vt 0.971227 0.526655
vt 0.971199 0.292368
vt 0.984215 0.292366
vt 0.965891 0.527754
vt 0.965865 0.293388
vt 0.969886 0.295954
vt 0.969935 0.523709
vt 0.967208 0.524087
vt 0.954271 0.524089
vt 0.954219 0.296414
vt 0.967156 0.296412
vt 0.988002 0.290775
vt 0.988054 0.528882
vt 0.982876 0.523706
vt 0.982827 0.295952
vt 0.952664 0.285017
vt 0.963584 0.285018
vt 0.963562 0.739336
vt 0.952641 0.739336
vt 0.972145 0.285305
vt 0.983059 0.285300
vt 0.983263 0.739295
vt 0.972350 0.739300
vt 0.991184 0.277297
vt 0.991329 0.743740
vt 0.991070 0.268814
vt 0.990838 0.743775
vt 0.949097 0.529265
vt 0.949043 0.291242
vt 0.944571 0.747404
vt 0.944658 0.280697
vt 0.988403 0.288233
vt 0.988403 0.529298
vt 0.944887 0.755511
vt 0.944887 0.280885
usemtl Interior_Mat
s off
f 1131/1413 1132/1414 1133/1415 1134/1416
f 1135/1417 1133/1418 1136/1419 1137/1420
f 1134/1421 1138/1422 1139/1423 1140/1424
f 1140/1425 1139/1426 1137/1427 1136/1428
f 1135/1429 1138/1430 1134/1416 1133/1415
f 1136/1419 1133/1418 1132/1431 1141/1432
f 1140/1425 1136/1428 1141/1433 1142/1434
f 1142/1435 1131/1436 1134/1421 1140/1424
f 1145/1437 1143/1438 1147/1439 1148/1440
f 1149/1441 1150/1442 1151/1443 1152/1444
f 1149/1441 1152/1444 1144/1445 1146/1446
f 1153/1447 1154/1448 1155/1449 1156/1450
f 1156/1451 1147/1452 1152/1453 1151/1454
f 1148/1455 1155/1456 1150/1457 1149/1458
f 1156/1450 1155/1449 1148/1440 1147/1439
f 1143/1459 1144/1460 1152/1453 1147/1452
f 1154/1436 1157/1461 1150/1457 1155/1456
f 1157/1462 1158/1463 1151/1443 1150/1442
f 1158/1464 1153/1465 1156/1451 1151/1454
f 1148/1455 1149/1458 1146/1466 1145/1467
f 1159/1468 1160/1469 1161/1470 1162/1471
f 1163/1436 1161/1472 1164/1473 1165/1474
f 1162/1475 1166/1476 1167/1477 1168/1478
f 1168/1479 1167/1480 1165/1481 1164/1482
f 1166/1483 1163/1484 1169/1485 1170/1486
f 1171/1487 1172/1488 1173/1489 1174/1490
f 1171/1487 1174/1490 1165/1481 1167/1480
f 1175/1491 1176/1492 1177/1493 1178/1494
f 1178/1495 1169/1496 1174/1497 1173/1498
f 1170/1499 1177/1500 1172/1501 1171/1502
f 1178/1494 1177/1493 1170/1486 1169/1485
f 1163/1484 1166/1483 1162/1471 1161/1470
f 1163/1436 1165/1474 1174/1497 1169/1496
f 1176/1503 1179/1504 1172/1501 1177/1500
f 1164/1473 1161/1472 1160/1505 1180/1506
f 1179/1507 1181/1508 1173/1489 1172/1488
f 1181/1509 1175/1510 1178/1495 1173/1498
f 1168/1479 1164/1482 1180/1511 1182/1512
f 1182/1513 1159/1514 1162/1475 1168/1478
f 1170/1499 1171/1502 1167/1477 1166/1476
